<svg width="212" height="213" viewBox="0 0 212 213" fill="none" xmlns="http://www.w3.org/2000/svg">
<circle cx="107.5" cy="108.5" r="97.5" fill="#251F1F"/>
<path d="M164.676 93.3208C161.135 86.5085 157.665 81.6345 153.23 78.4728C148.768 75.292 143.629 74.0562 137.115 73.8378L137.179 76.473L137.115 73.8378C134.856 73.7621 133.098 75.6926 133.032 78.145L132.068 113.664C131.962 117.597 135.957 120.207 138.807 118.065L163.539 99.4764C165.283 98.1653 165.811 95.5036 164.676 93.3208Z" stroke="white" stroke-width="5"/>
<path d="M138.251 80.598C141.057 82.5761 143.893 84.4319 146.752 86.3024C147.497 86.7902 148.264 87.0717 149.057 87.4263C150.75 88.1831 152.08 90.0085 153.436 91.3343C166.115 103.728 149.295 87.2806 154.441 92.2862C154.522 92.3646 154.26 92.1609 154.171 92.0959C152.909 91.175 151.731 90.1104 150.441 89.2379C148.4 87.8576 146.291 86.6012 143.895 86.492C143.159 86.4585 142.522 86.5568 141.857 86.9099C141.109 87.3067 142.919 90.1752 143.146 90.6462C144.086 92.5905 145.182 94.3616 146.52 95.9733C146.866 96.3902 147.672 96.8924 147.849 97.4881C147.891 97.6287 145.089 96.0818 144.619 95.7584C143.641 95.0844 141.995 93.5602 140.741 94.0274C139.921 94.3329 141.354 95.2511 141.584 95.6096C142.499 97.0327 143.473 98.9261 141.356 99.5075C140.864 99.6428 138.965 99.2336 139.606 100.583C140.194 101.823 139.905 102.191 139.299 103.332C139.096 103.715 138.883 104.32 138.568 104.609C138.293 104.861 137.593 104.634 137.637 105.215C137.672 105.685 138.046 105.982 138.211 106.379C138.361 106.742 138.119 107.94 138.025 108.301C137.745 109.381 136.805 110.275 136.297 111.232" stroke="white" stroke-width="3" stroke-linecap="round" stroke-linejoin="round"/>
<path d="M59.2361 85.544C59.2361 87.584 58.7081 89.456 57.6521 91.16C56.5961 92.864 55.0601 94.256 53.0441 95.336C51.0281 96.416 48.6281 97.052 45.8441 97.244L44.2961 105.92C43.6961 109.256 42.0641 110.924 39.4001 110.924C37.9361 110.924 36.5801 110.492 35.3321 109.628C34.1081 108.764 33.1241 107.444 32.3801 105.668C31.6361 103.892 31.2641 101.708 31.2641 99.116C31.2641 94.244 32.0441 90.116 33.6041 86.732C35.1881 83.324 37.3001 80.78 39.9401 79.1C42.6041 77.396 45.5321 76.544 48.7241 76.544C50.9801 76.544 52.8881 76.94 54.4481 77.732C56.0321 78.524 57.2201 79.604 58.0121 80.972C58.8281 82.316 59.2361 83.84 59.2361 85.544ZM46.4921 93.536C51.4121 92.912 53.8721 90.356 53.8721 85.868C53.8721 84.284 53.3441 83 52.2881 82.016C51.2561 81.008 49.6481 80.504 47.4641 80.504C44.9921 80.504 42.8321 81.284 40.9841 82.844C39.1601 84.404 37.7441 86.576 36.7361 89.36C35.7521 92.12 35.2601 95.276 35.2601 98.828C35.2601 100.316 35.4041 101.636 35.6921 102.788C36.0041 103.94 36.3881 104.84 36.8441 105.488C37.3241 106.112 37.7801 106.424 38.2121 106.424C38.8121 106.424 39.2681 105.596 39.5801 103.94L40.7681 97.136C39.8321 96.992 39.4241 96.932 39.5441 96.956C38.8241 96.836 38.3561 96.62 38.1401 96.308C37.9241 95.972 37.8161 95.552 37.8161 95.048C37.8161 94.52 37.9601 94.1 38.2481 93.788C38.5601 93.476 38.9801 93.32 39.5081 93.32C39.7481 93.32 39.9281 93.332 40.0481 93.356C40.6241 93.452 41.0681 93.512 41.3801 93.536C41.6921 91.664 42.1361 89.156 42.7121 86.012C42.8561 85.196 43.1801 84.62 43.6841 84.284C44.2121 83.924 44.8241 83.744 45.5201 83.744C46.3121 83.744 46.8761 83.9 47.2121 84.212C47.5721 84.5 47.7521 84.968 47.7521 85.616C47.7521 86 47.7281 86.312 47.6801 86.552L46.4921 93.536ZM62.8763 87.848C61.8683 87.848 61.1123 87.62 60.6083 87.164C60.1043 86.684 59.8523 86.024 59.8523 85.184C59.8523 84.344 60.1763 83.648 60.8243 83.096C61.4963 82.52 62.3243 82.232 63.3083 82.232C64.1963 82.232 64.9163 82.448 65.4683 82.88C66.0203 83.312 66.2963 83.924 66.2963 84.716C66.2963 85.676 65.9843 86.444 65.3603 87.02C64.7363 87.572 63.9083 87.848 62.8763 87.848ZM62.5883 107.18C61.0283 107.18 59.8883 106.628 59.1683 105.524C58.4723 104.42 58.1243 102.956 58.1243 101.132C58.1243 100.052 58.2563 98.672 58.5203 96.992C58.8083 95.288 59.1683 93.704 59.6003 92.24C59.8163 91.472 60.1043 90.944 60.4643 90.656C60.8243 90.368 61.4003 90.224 62.1923 90.224C63.4163 90.224 64.0283 90.632 64.0283 91.448C64.0283 92.048 63.8003 93.44 63.3443 95.624C62.7683 98.264 62.4803 100.052 62.4803 100.988C62.4803 101.708 62.5763 102.26 62.7683 102.644C62.9603 103.028 63.2843 103.22 63.7403 103.22C64.1723 103.22 64.7123 102.92 65.3603 102.32C66.0083 101.72 66.8723 100.772 67.9523 99.476C68.2403 99.14 68.5643 98.972 68.9243 98.972C69.2363 98.972 69.4763 99.116 69.6443 99.404C69.8363 99.692 69.9323 100.088 69.9323 100.592C69.9323 101.552 69.7043 102.296 69.2483 102.824C66.8723 105.728 64.6523 107.18 62.5883 107.18ZM84.2805 98.972C84.5925 98.972 84.8325 99.116 85.0005 99.404C85.1925 99.692 85.2885 100.088 85.2885 100.592C85.2885 101.48 85.0605 102.224 84.6045 102.824C83.4765 104.288 82.0725 105.44 80.3925 106.28C78.7365 107.12 76.8645 107.54 74.7765 107.54C73.1445 107.54 71.7285 107.3 70.5285 106.82C69.3285 106.316 68.4045 105.644 67.7565 104.804C67.1325 103.94 66.8205 102.98 66.8205 101.924C66.8205 100.34 67.4565 98.936 68.7285 97.712C70.0005 96.488 71.8245 95.312 74.2005 94.184L68.2965 94.328C67.7685 94.352 67.3605 94.172 67.0725 93.788C66.8085 93.38 66.6765 92.9 66.6765 92.348C66.6765 91.772 66.8085 91.268 67.0725 90.836C67.3605 90.38 67.7445 90.152 68.2245 90.152C69.3285 90.152 70.8045 90.236 72.6525 90.404C73.0365 90.428 73.7325 90.476 74.7405 90.548C75.7725 90.62 76.6365 90.656 77.3325 90.656C77.5725 90.656 78.0285 90.56 78.7005 90.368C78.8205 90.344 79.0485 90.284 79.3845 90.188C79.7445 90.092 80.0445 90.044 80.2845 90.044C80.6685 90.044 80.9805 90.212 81.2205 90.548C81.4845 90.884 81.6165 91.4 81.6165 92.096C81.6165 92.864 81.4365 93.464 81.0765 93.896C80.7165 94.328 80.1525 94.712 79.3845 95.048C77.2005 95.984 75.3885 96.992 73.9485 98.072C72.5085 99.128 71.7885 100.184 71.7885 101.24C71.7885 101.912 72.1005 102.464 72.7245 102.896C73.3485 103.328 74.2725 103.544 75.4965 103.544C76.8405 103.544 78.1965 103.208 79.5645 102.536C80.9565 101.864 82.2045 100.844 83.3085 99.476C83.5965 99.14 83.9205 98.972 84.2805 98.972ZM100.312 98.972C100.624 98.972 100.864 99.116 101.032 99.404C101.224 99.692 101.32 100.088 101.32 100.592C101.32 101.48 101.092 102.224 100.636 102.824C99.5078 104.288 98.1038 105.44 96.4238 106.28C94.7678 107.12 92.8958 107.54 90.8078 107.54C89.1758 107.54 87.7598 107.3 86.5598 106.82C85.3598 106.316 84.4358 105.644 83.7878 104.804C83.1638 103.94 82.8518 102.98 82.8518 101.924C82.8518 100.34 83.4878 98.936 84.7598 97.712C86.0318 96.488 87.8558 95.312 90.2318 94.184L84.3278 94.328C83.7998 94.352 83.3918 94.172 83.1038 93.788C82.8398 93.38 82.7078 92.9 82.7078 92.348C82.7078 91.772 82.8398 91.268 83.1038 90.836C83.3918 90.38 83.7758 90.152 84.2558 90.152C85.3598 90.152 86.8358 90.236 88.6838 90.404C89.0678 90.428 89.7638 90.476 90.7718 90.548C91.8038 90.62 92.6678 90.656 93.3638 90.656C93.6038 90.656 94.0598 90.56 94.7318 90.368C94.8518 90.344 95.0798 90.284 95.4158 90.188C95.7758 90.092 96.0758 90.044 96.3158 90.044C96.6998 90.044 97.0118 90.212 97.2518 90.548C97.5158 90.884 97.6478 91.4 97.6478 92.096C97.6478 92.864 97.4678 93.464 97.1078 93.896C96.7478 94.328 96.1838 94.712 95.4158 95.048C93.2318 95.984 91.4198 96.992 89.9798 98.072C88.5398 99.128 87.8198 100.184 87.8198 101.24C87.8198 101.912 88.1318 102.464 88.7558 102.896C89.3798 103.328 90.3038 103.544 91.5278 103.544C92.8718 103.544 94.2278 103.208 95.5958 102.536C96.9878 101.864 98.2358 100.844 99.3398 99.476C99.6278 99.14 99.9518 98.972 100.312 98.972ZM102.167 107.18C100.799 107.18 99.6835 106.64 98.8195 105.56C97.9795 104.48 97.5595 103.064 97.5595 101.312C97.5595 99.392 98.0035 97.58 98.8915 95.876C99.7795 94.148 100.955 92.768 102.419 91.736C103.907 90.68 105.479 90.152 107.135 90.152C107.663 90.152 108.011 90.26 108.179 90.476C108.371 90.668 108.527 91.028 108.647 91.556C109.103 91.46 109.607 91.412 110.159 91.412C110.735 91.412 111.179 91.556 111.491 91.844C111.803 92.132 111.959 92.54 111.959 93.068C111.959 93.62 111.839 94.58 111.599 95.948C111.335 97.412 111.131 98.816 110.987 100.16C110.843 101.48 110.771 102.968 110.771 104.624C110.771 105.536 110.579 106.196 110.195 106.604C109.835 106.988 109.235 107.18 108.395 107.18C107.579 107.18 106.967 106.988 106.559 106.604C106.175 106.196 105.983 105.548 105.983 104.66L106.019 104.084C105.275 106.148 103.991 107.18 102.167 107.18ZM103.571 103.544C104.243 103.544 104.855 103.076 105.407 102.14C105.959 101.204 106.451 99.536 106.883 97.136L107.567 93.5C106.583 93.524 105.671 93.908 104.831 94.652C103.991 95.372 103.319 96.332 102.815 97.532C102.311 98.732 102.059 100.004 102.059 101.348C102.059 102.068 102.191 102.62 102.455 103.004C102.743 103.364 103.115 103.544 103.571 103.544Z" fill="#DFBF1A"/>
<path d="M94.3819 132.544C94.3819 134.584 93.8539 136.456 92.7979 138.16C91.7419 139.864 90.2059 141.256 88.1899 142.336C86.1739 143.416 83.7739 144.052 80.9899 144.244L79.4419 152.92C78.8419 156.256 77.2099 157.924 74.5459 157.924C73.0819 157.924 71.7259 157.492 70.4779 156.628C69.2539 155.764 68.2699 154.444 67.5259 152.668C66.7819 150.892 66.4099 148.708 66.4099 146.116C66.4099 141.244 67.1899 137.116 68.7499 133.732C70.3339 130.324 72.4459 127.78 75.0859 126.1C77.7499 124.396 80.6779 123.544 83.8699 123.544C86.1259 123.544 88.0339 123.94 89.5939 124.732C91.1779 125.524 92.3659 126.604 93.1579 127.972C93.9739 129.316 94.3819 130.84 94.3819 132.544ZM81.6379 140.536C86.5579 139.912 89.0179 137.356 89.0179 132.868C89.0179 131.284 88.4899 130 87.4339 129.016C86.4019 128.008 84.7939 127.504 82.6099 127.504C80.1379 127.504 77.9779 128.284 76.1299 129.844C74.3059 131.404 72.8899 133.576 71.8819 136.36C70.8979 139.12 70.4059 142.276 70.4059 145.828C70.4059 147.316 70.5499 148.636 70.8379 149.788C71.1499 150.94 71.5339 151.84 71.9899 152.488C72.4699 153.112 72.9259 153.424 73.3579 153.424C73.9579 153.424 74.4139 152.596 74.7259 150.94L75.9139 144.136C74.9779 143.992 74.5699 143.932 74.6899 143.956C73.9699 143.836 73.5019 143.62 73.2859 143.308C73.0699 142.972 72.9619 142.552 72.9619 142.048C72.9619 141.52 73.1059 141.1 73.3939 140.788C73.7059 140.476 74.1259 140.32 74.6539 140.32C74.8939 140.32 75.0739 140.332 75.1939 140.356C75.7699 140.452 76.2139 140.512 76.5259 140.536C76.8379 138.664 77.2819 136.156 77.8579 133.012C78.0019 132.196 78.3259 131.62 78.8299 131.284C79.3579 130.924 79.9699 130.744 80.6659 130.744C81.4579 130.744 82.0219 130.9 82.3579 131.212C82.7179 131.5 82.8979 131.968 82.8979 132.616C82.8979 133 82.8739 133.312 82.8259 133.552L81.6379 140.536ZM109.095 145.972C109.407 145.972 109.647 146.116 109.815 146.404C110.007 146.692 110.103 147.088 110.103 147.592C110.103 148.552 109.875 149.296 109.419 149.824C108.387 151.096 107.259 152.14 106.035 152.956C104.835 153.772 103.467 154.18 101.931 154.18C99.8186 154.18 98.2466 153.22 97.2146 151.3C96.2066 149.38 95.7026 146.896 95.7026 143.848C95.7026 140.92 96.0746 137.584 96.8186 133.84C97.5866 130.096 98.7026 126.88 100.167 124.192C101.655 121.504 103.419 120.16 105.459 120.16C106.611 120.16 107.511 120.7 108.159 121.78C108.831 122.836 109.167 124.36 109.167 126.352C109.167 129.208 108.375 132.52 106.791 136.288C105.207 140.056 103.059 143.788 100.347 147.484C100.515 148.468 100.791 149.176 101.175 149.608C101.559 150.016 102.063 150.22 102.687 150.22C103.671 150.22 104.535 149.944 105.279 149.392C106.023 148.816 106.971 147.844 108.123 146.476C108.411 146.14 108.735 145.972 109.095 145.972ZM104.667 123.724C104.115 123.724 103.491 124.72 102.795 126.712C102.099 128.704 101.487 131.176 100.959 134.128C100.431 137.08 100.143 139.912 100.095 142.624C101.799 139.816 103.155 137.008 104.163 134.2C105.171 131.368 105.675 128.788 105.675 126.46C105.675 124.636 105.339 123.724 104.667 123.724ZM123.249 145.972C123.561 145.972 123.801 146.116 123.969 146.404C124.161 146.692 124.257 147.088 124.257 147.592C124.257 148.552 124.029 149.296 123.573 149.824C122.685 150.904 121.425 151.9 119.793 152.812C118.185 153.724 116.457 154.18 114.609 154.18C112.089 154.18 110.133 153.496 108.741 152.128C107.349 150.76 106.653 148.888 106.653 146.512C106.653 144.856 107.001 143.32 107.697 141.904C108.393 140.464 109.353 139.324 110.577 138.484C111.825 137.644 113.229 137.224 114.789 137.224C116.181 137.224 117.297 137.644 118.137 138.484C118.977 139.3 119.397 140.416 119.397 141.832C119.397 143.488 118.797 144.916 117.597 146.116C116.421 147.292 114.417 148.228 111.585 148.924C112.185 150.028 113.325 150.58 115.005 150.58C116.085 150.58 117.309 150.208 118.677 149.464C120.069 148.696 121.269 147.7 122.277 146.476C122.565 146.14 122.889 145.972 123.249 145.972ZM114.177 140.752C113.289 140.752 112.533 141.268 111.909 142.3C111.309 143.332 111.009 144.58 111.009 146.044V146.116C112.425 145.78 113.541 145.276 114.357 144.604C115.173 143.932 115.581 143.152 115.581 142.264C115.581 141.808 115.449 141.448 115.185 141.184C114.945 140.896 114.609 140.752 114.177 140.752ZM125.578 154.18C124.09 154.18 122.902 153.64 122.014 152.56C121.126 151.48 120.682 150.064 120.682 148.312C120.682 146.392 121.126 144.58 122.014 142.876C122.902 141.148 124.078 139.768 125.542 138.736C127.03 137.68 128.602 137.152 130.258 137.152C130.786 137.152 131.134 137.26 131.302 137.476C131.494 137.668 131.65 138.028 131.77 138.556C132.274 138.46 132.802 138.412 133.354 138.412C134.53 138.412 135.118 138.832 135.118 139.672C135.118 140.176 134.938 141.376 134.578 143.272C134.026 146.032 133.75 147.952 133.75 149.032C133.75 149.392 133.834 149.68 134.002 149.896C134.194 150.112 134.434 150.22 134.722 150.22C135.178 150.22 135.73 149.932 136.378 149.356C137.026 148.756 137.902 147.796 139.006 146.476C139.294 146.14 139.618 145.972 139.978 145.972C140.29 145.972 140.53 146.116 140.698 146.404C140.89 146.692 140.986 147.088 140.986 147.592C140.986 148.552 140.758 149.296 140.302 149.824C139.318 151.048 138.274 152.08 137.17 152.92C136.066 153.76 134.998 154.18 133.966 154.18C133.174 154.18 132.442 153.916 131.77 153.388C131.122 152.836 130.63 152.092 130.294 151.156C129.046 153.172 127.474 154.18 125.578 154.18ZM126.874 150.544C127.402 150.544 127.906 150.232 128.386 149.608C128.866 148.984 129.214 148.156 129.43 147.124L130.762 140.5C129.754 140.524 128.818 140.908 127.954 141.652C127.114 142.372 126.442 143.332 125.938 144.532C125.434 145.732 125.182 147.004 125.182 148.348C125.182 149.092 125.326 149.644 125.614 150.004C125.926 150.364 126.346 150.544 126.874 150.544ZM144.756 154.972C143.508 154.972 142.548 154.684 141.876 154.108C141.228 153.532 140.904 152.884 140.904 152.164C140.904 151.54 141.132 151 141.588 150.544C142.044 150.088 142.716 149.86 143.604 149.86C143.916 149.86 144.276 149.896 144.684 149.968C145.116 150.016 145.44 150.052 145.656 150.076C145.632 149.452 145.488 148.864 145.224 148.312C144.984 147.76 144.672 147.232 144.288 146.728C143.904 146.2 143.544 145.744 143.208 145.36C142.464 146.776 141.72 147.952 140.976 148.888C140.256 149.824 139.464 150.712 138.6 151.552C138.168 151.984 137.712 152.2 137.232 152.2C136.848 152.2 136.536 152.068 136.296 151.804C136.056 151.516 135.936 151.168 135.936 150.76C135.936 150.28 136.104 149.836 136.44 149.428L136.908 148.852C138.228 147.22 139.224 145.876 139.896 144.82C140.304 144.124 140.784 143.2 141.336 142.048C141.888 140.872 142.428 139.66 142.956 138.412C143.412 137.356 144.36 136.828 145.8 136.828C146.472 136.828 146.94 136.888 147.204 137.008C147.468 137.128 147.6 137.32 147.6 137.584C147.6 137.728 147.552 137.956 147.456 138.268C147.36 138.58 147.228 138.892 147.06 139.204C146.628 140.068 146.412 140.8 146.412 141.4C146.412 141.76 146.532 142.156 146.772 142.588C147.036 143.02 147.432 143.56 147.96 144.208C148.728 145.216 149.304 146.08 149.688 146.8C150.096 147.496 150.3 148.264 150.3 149.104C150.3 149.344 150.276 149.68 150.228 150.112C151.404 149.656 152.784 148.444 154.368 146.476C154.656 146.14 154.98 145.972 155.34 145.972C155.652 145.972 155.892 146.116 156.06 146.404C156.252 146.692 156.348 147.088 156.348 147.592C156.348 148.504 156.12 149.248 155.664 149.824C154.464 151.312 153.312 152.332 152.208 152.884C151.128 153.412 149.784 153.7 148.176 153.748C147.216 154.564 146.076 154.972 144.756 154.972ZM166.311 147.052C166.623 147.052 166.863 147.196 167.031 147.484C167.223 147.772 167.319 148.168 167.319 148.672C167.319 149.536 167.115 150.28 166.707 150.904C166.035 151.936 165.147 152.74 164.043 153.316C162.963 153.892 161.667 154.18 160.155 154.18C157.851 154.18 156.063 153.496 154.791 152.128C153.519 150.736 152.883 148.864 152.883 146.512C152.883 144.856 153.231 143.32 153.927 141.904C154.623 140.464 155.583 139.324 156.807 138.484C158.055 137.644 159.459 137.224 161.019 137.224C162.411 137.224 163.527 137.644 164.367 138.484C165.207 139.3 165.627 140.416 165.627 141.832C165.627 143.488 165.027 144.916 163.827 146.116C162.651 147.292 160.635 148.228 157.779 148.924C158.355 150.028 159.327 150.58 160.695 150.58C161.679 150.58 162.483 150.352 163.107 149.896C163.755 149.44 164.499 148.672 165.339 147.592C165.627 147.232 165.951 147.052 166.311 147.052ZM160.407 140.752C159.519 140.752 158.763 141.268 158.139 142.3C157.539 143.332 157.239 144.58 157.239 146.044V146.116C158.655 145.78 159.771 145.276 160.587 144.604C161.403 143.932 161.811 143.152 161.811 142.264C161.811 141.808 161.679 141.448 161.415 141.184C161.175 140.896 160.839 140.752 160.407 140.752Z" fill="#DFBF1A"/>
</svg>
