<svg width="1057" height="21" viewBox="0 0 1057 21" fill="none" xmlns="http://www.w3.org/2000/svg">
<path d="M15.8359 19H11.8516L10.1758 10.0234C9.91797 8.79688 9.73438 7.34766 9.625 5.67578L9.53125 6.54297L9.05078 10.0703L7.42188 19H3.4375L0.332031 1.86719H3.46094L4.99609 11.5352C5.14453 12.5039 5.34375 14.0234 5.59375 16.0938C5.78906 14 5.97266 12.5039 6.14453 11.6055L7.97266 1.86719H11.2773L13.1055 11.6055C13.3477 13.0508 13.5391 14.5547 13.6797 16.1172C13.9531 13.8047 14.1523 12.2773 14.2773 11.5352L15.7656 1.86719H18.918L15.8359 19ZM26.957 19V11.2188C26.957 9.30469 26.4766 8.34766 25.5156 8.34766C24.7969 8.34766 24.293 8.72656 24.0039 9.48438C23.7148 10.2344 23.5703 11.3164 23.5703 12.7305V19H20.4531V0.765625H23.5703V4.82031C23.5703 5.34375 23.5234 6.27734 23.4297 7.62109H23.5938C24.2188 6.33984 25.1797 5.69922 26.4766 5.69922C27.6719 5.69922 28.5742 6.10547 29.1836 6.91797C29.793 7.72266 30.0977 8.91016 30.0977 10.4805V19H26.957ZM35.7578 19H32.6406V5.94531H35.7578V19ZM32.5117 2.53516C32.5117 2.01953 32.6602 1.61328 32.957 1.31641C33.2617 1.01172 33.6836 0.859375 34.2227 0.859375C34.7305 0.859375 35.1367 1.01172 35.4414 1.31641C35.7461 1.61328 35.8984 2.01953 35.8984 2.53516C35.8984 3.06641 35.7422 3.48047 35.4297 3.77734C35.1172 4.06641 34.7148 4.21094 34.2227 4.21094C33.707 4.21094 33.293 4.06641 32.9805 3.77734C32.668 3.48047 32.5117 3.06641 32.5117 2.53516ZM42.9648 16.5977C43.4023 16.5977 43.875 16.4883 44.3828 16.2695V18.707C43.875 19.0586 43.1133 19.2344 42.0977 19.2344C40.9648 19.2344 40.125 18.8984 39.5781 18.2266C39.0312 17.5469 38.7578 16.5312 38.7578 15.1797V8.41797H37.4922V7.02344L39.1211 5.89844L39.918 3.13281H41.9102V5.94531H44.2773V8.41797H41.9102V15.2852C41.9102 16.1602 42.2617 16.5977 42.9648 16.5977ZM51.0273 19.2344C49.3945 19.2344 48.1055 18.6562 47.1602 17.5C46.2227 16.3359 45.7539 14.6914 45.7539 12.5664C45.7539 10.4102 46.1797 8.72656 47.0312 7.51562C47.8828 6.30469 49.0703 5.69922 50.5938 5.69922C52.0156 5.69922 53.1367 6.21875 53.957 7.25781C54.7773 8.28906 55.1875 9.73828 55.1875 11.6055V13.2695H48.918C48.9414 14.4336 49.1797 15.3008 49.6328 15.8711C50.0859 16.4336 50.7109 16.7148 51.5078 16.7148C52.5234 16.7148 53.5625 16.3984 54.625 15.7656V18.332C53.625 18.9336 52.4258 19.2344 51.0273 19.2344ZM50.5703 8.10156C50.125 8.10156 49.7578 8.33984 49.4688 8.81641C49.1797 9.28516 49.0117 10.0156 48.9648 11.0078H52.1289C52.1133 10.0547 51.9688 9.33203 51.6953 8.83984C51.4219 8.34766 51.0469 8.10156 50.5703 8.10156ZM57.2266 17.3945C57.2266 16.7852 57.3867 16.3125 57.707 15.9766C58.0352 15.6406 58.5195 15.4727 59.1602 15.4727C59.8008 15.4727 60.2852 15.6406 60.6133 15.9766C60.9414 16.3047 61.1055 16.7773 61.1055 17.3945C61.1055 18.0039 60.9336 18.4766 60.5898 18.8125C60.2539 19.1484 59.7773 19.3164 59.1602 19.3164C58.5273 19.3164 58.0469 19.1484 57.7188 18.8125C57.3906 18.4688 57.2266 17.9961 57.2266 17.3945ZM63.7188 17.3945C63.7188 16.7852 63.8789 16.3125 64.1992 15.9766C64.5273 15.6406 65.0117 15.4727 65.6523 15.4727C66.293 15.4727 66.7773 15.6406 67.1055 15.9766C67.4336 16.3047 67.5977 16.7773 67.5977 17.3945C67.5977 18.0039 67.4258 18.4766 67.082 18.8125C66.7461 19.1484 66.2695 19.3164 65.6523 19.3164C65.0195 19.3164 64.5391 19.1484 64.2109 18.8125C63.8828 18.4688 63.7188 17.9961 63.7188 17.3945ZM70.2109 17.3945C70.2109 16.7852 70.3711 16.3125 70.6914 15.9766C71.0195 15.6406 71.5039 15.4727 72.1445 15.4727C72.7852 15.4727 73.2695 15.6406 73.5977 15.9766C73.9258 16.3047 74.0898 16.7773 74.0898 17.3945C74.0898 18.0039 73.918 18.4766 73.5742 18.8125C73.2383 19.1484 72.7617 19.3164 72.1445 19.3164C71.5117 19.3164 71.0312 19.1484 70.7031 18.8125C70.375 18.4688 70.2109 17.9961 70.2109 17.3945ZM76.7031 17.3945C76.7031 16.7852 76.8633 16.3125 77.1836 15.9766C77.5117 15.6406 77.9961 15.4727 78.6367 15.4727C79.2773 15.4727 79.7617 15.6406 80.0898 15.9766C80.418 16.3047 80.582 16.7773 80.582 17.3945C80.582 18.0039 80.4102 18.4766 80.0664 18.8125C79.7305 19.1484 79.2539 19.3164 78.6367 19.3164C78.0039 19.3164 77.5234 19.1484 77.1953 18.8125C76.8672 18.4688 76.7031 17.9961 76.7031 17.3945ZM83.1953 17.3945C83.1953 16.7852 83.3555 16.3125 83.6758 15.9766C84.0039 15.6406 84.4883 15.4727 85.1289 15.4727C85.7695 15.4727 86.2539 15.6406 86.582 15.9766C86.9102 16.3047 87.0742 16.7773 87.0742 17.3945C87.0742 18.0039 86.9023 18.4766 86.5586 18.8125C86.2227 19.1484 85.7461 19.3164 85.1289 19.3164C84.4961 19.3164 84.0156 19.1484 83.6875 18.8125C83.3594 18.4688 83.1953 17.9961 83.1953 17.3945ZM89.6875 17.3945C89.6875 16.7852 89.8477 16.3125 90.168 15.9766C90.4961 15.6406 90.9805 15.4727 91.6211 15.4727C92.2617 15.4727 92.7461 15.6406 93.0742 15.9766C93.4023 16.3047 93.5664 16.7773 93.5664 17.3945C93.5664 18.0039 93.3945 18.4766 93.0508 18.8125C92.7148 19.1484 92.2383 19.3164 91.6211 19.3164C90.9883 19.3164 90.5078 19.1484 90.1797 18.8125C89.8516 18.4688 89.6875 17.9961 89.6875 17.3945ZM96.1797 17.3945C96.1797 16.7852 96.3398 16.3125 96.6602 15.9766C96.9883 15.6406 97.4727 15.4727 98.1133 15.4727C98.7539 15.4727 99.2383 15.6406 99.5664 15.9766C99.8945 16.3047 100.059 16.7773 100.059 17.3945C100.059 18.0039 99.8867 18.4766 99.543 18.8125C99.207 19.1484 98.7305 19.3164 98.1133 19.3164C97.4805 19.3164 97 19.1484 96.6719 18.8125C96.3438 18.4688 96.1797 17.9961 96.1797 17.3945ZM102.672 17.3945C102.672 16.7852 102.832 16.3125 103.152 15.9766C103.48 15.6406 103.965 15.4727 104.605 15.4727C105.246 15.4727 105.73 15.6406 106.059 15.9766C106.387 16.3047 106.551 16.7773 106.551 17.3945C106.551 18.0039 106.379 18.4766 106.035 18.8125C105.699 19.1484 105.223 19.3164 104.605 19.3164C103.973 19.3164 103.492 19.1484 103.164 18.8125C102.836 18.4688 102.672 17.9961 102.672 17.3945ZM109.164 17.3945C109.164 16.7852 109.324 16.3125 109.645 15.9766C109.973 15.6406 110.457 15.4727 111.098 15.4727C111.738 15.4727 112.223 15.6406 112.551 15.9766C112.879 16.3047 113.043 16.7773 113.043 17.3945C113.043 18.0039 112.871 18.4766 112.527 18.8125C112.191 19.1484 111.715 19.3164 111.098 19.3164C110.465 19.3164 109.984 19.1484 109.656 18.8125C109.328 18.4688 109.164 17.9961 109.164 17.3945ZM115.656 17.3945C115.656 16.7852 115.816 16.3125 116.137 15.9766C116.465 15.6406 116.949 15.4727 117.59 15.4727C118.23 15.4727 118.715 15.6406 119.043 15.9766C119.371 16.3047 119.535 16.7773 119.535 17.3945C119.535 18.0039 119.363 18.4766 119.02 18.8125C118.684 19.1484 118.207 19.3164 117.59 19.3164C116.957 19.3164 116.477 19.1484 116.148 18.8125C115.82 18.4688 115.656 17.9961 115.656 17.3945ZM122.148 17.3945C122.148 16.7852 122.309 16.3125 122.629 15.9766C122.957 15.6406 123.441 15.4727 124.082 15.4727C124.723 15.4727 125.207 15.6406 125.535 15.9766C125.863 16.3047 126.027 16.7773 126.027 17.3945C126.027 18.0039 125.855 18.4766 125.512 18.8125C125.176 19.1484 124.699 19.3164 124.082 19.3164C123.449 19.3164 122.969 19.1484 122.641 18.8125C122.312 18.4688 122.148 17.9961 122.148 17.3945ZM128.641 17.3945C128.641 16.7852 128.801 16.3125 129.121 15.9766C129.449 15.6406 129.934 15.4727 130.574 15.4727C131.215 15.4727 131.699 15.6406 132.027 15.9766C132.355 16.3047 132.52 16.7773 132.52 17.3945C132.52 18.0039 132.348 18.4766 132.004 18.8125C131.668 19.1484 131.191 19.3164 130.574 19.3164C129.941 19.3164 129.461 19.1484 129.133 18.8125C128.805 18.4688 128.641 17.9961 128.641 17.3945ZM135.133 17.3945C135.133 16.7852 135.293 16.3125 135.613 15.9766C135.941 15.6406 136.426 15.4727 137.066 15.4727C137.707 15.4727 138.191 15.6406 138.52 15.9766C138.848 16.3047 139.012 16.7773 139.012 17.3945C139.012 18.0039 138.84 18.4766 138.496 18.8125C138.16 19.1484 137.684 19.3164 137.066 19.3164C136.434 19.3164 135.953 19.1484 135.625 18.8125C135.297 18.4688 135.133 17.9961 135.133 17.3945ZM141.625 17.3945C141.625 16.7852 141.785 16.3125 142.105 15.9766C142.434 15.6406 142.918 15.4727 143.559 15.4727C144.199 15.4727 144.684 15.6406 145.012 15.9766C145.34 16.3047 145.504 16.7773 145.504 17.3945C145.504 18.0039 145.332 18.4766 144.988 18.8125C144.652 19.1484 144.176 19.3164 143.559 19.3164C142.926 19.3164 142.445 19.1484 142.117 18.8125C141.789 18.4688 141.625 17.9961 141.625 17.3945ZM148.117 17.3945C148.117 16.7852 148.277 16.3125 148.598 15.9766C148.926 15.6406 149.41 15.4727 150.051 15.4727C150.691 15.4727 151.176 15.6406 151.504 15.9766C151.832 16.3047 151.996 16.7773 151.996 17.3945C151.996 18.0039 151.824 18.4766 151.48 18.8125C151.145 19.1484 150.668 19.3164 150.051 19.3164C149.418 19.3164 148.938 19.1484 148.609 18.8125C148.281 18.4688 148.117 17.9961 148.117 17.3945ZM154.609 17.3945C154.609 16.7852 154.77 16.3125 155.09 15.9766C155.418 15.6406 155.902 15.4727 156.543 15.4727C157.184 15.4727 157.668 15.6406 157.996 15.9766C158.324 16.3047 158.488 16.7773 158.488 17.3945C158.488 18.0039 158.316 18.4766 157.973 18.8125C157.637 19.1484 157.16 19.3164 156.543 19.3164C155.91 19.3164 155.43 19.1484 155.102 18.8125C154.773 18.4688 154.609 17.9961 154.609 17.3945ZM161.102 17.3945C161.102 16.7852 161.262 16.3125 161.582 15.9766C161.91 15.6406 162.395 15.4727 163.035 15.4727C163.676 15.4727 164.16 15.6406 164.488 15.9766C164.816 16.3047 164.98 16.7773 164.98 17.3945C164.98 18.0039 164.809 18.4766 164.465 18.8125C164.129 19.1484 163.652 19.3164 163.035 19.3164C162.402 19.3164 161.922 19.1484 161.594 18.8125C161.266 18.4688 161.102 17.9961 161.102 17.3945ZM167.594 17.3945C167.594 16.7852 167.754 16.3125 168.074 15.9766C168.402 15.6406 168.887 15.4727 169.527 15.4727C170.168 15.4727 170.652 15.6406 170.98 15.9766C171.309 16.3047 171.473 16.7773 171.473 17.3945C171.473 18.0039 171.301 18.4766 170.957 18.8125C170.621 19.1484 170.145 19.3164 169.527 19.3164C168.895 19.3164 168.414 19.1484 168.086 18.8125C167.758 18.4688 167.594 17.9961 167.594 17.3945ZM174.086 17.3945C174.086 16.7852 174.246 16.3125 174.566 15.9766C174.895 15.6406 175.379 15.4727 176.02 15.4727C176.66 15.4727 177.145 15.6406 177.473 15.9766C177.801 16.3047 177.965 16.7773 177.965 17.3945C177.965 18.0039 177.793 18.4766 177.449 18.8125C177.113 19.1484 176.637 19.3164 176.02 19.3164C175.387 19.3164 174.906 19.1484 174.578 18.8125C174.25 18.4688 174.086 17.9961 174.086 17.3945ZM180.578 17.3945C180.578 16.7852 180.738 16.3125 181.059 15.9766C181.387 15.6406 181.871 15.4727 182.512 15.4727C183.152 15.4727 183.637 15.6406 183.965 15.9766C184.293 16.3047 184.457 16.7773 184.457 17.3945C184.457 18.0039 184.285 18.4766 183.941 18.8125C183.605 19.1484 183.129 19.3164 182.512 19.3164C181.879 19.3164 181.398 19.1484 181.07 18.8125C180.742 18.4688 180.578 17.9961 180.578 17.3945ZM187.07 17.3945C187.07 16.7852 187.23 16.3125 187.551 15.9766C187.879 15.6406 188.363 15.4727 189.004 15.4727C189.645 15.4727 190.129 15.6406 190.457 15.9766C190.785 16.3047 190.949 16.7773 190.949 17.3945C190.949 18.0039 190.777 18.4766 190.434 18.8125C190.098 19.1484 189.621 19.3164 189.004 19.3164C188.371 19.3164 187.891 19.1484 187.562 18.8125C187.234 18.4688 187.07 17.9961 187.07 17.3945ZM193.562 17.3945C193.562 16.7852 193.723 16.3125 194.043 15.9766C194.371 15.6406 194.855 15.4727 195.496 15.4727C196.137 15.4727 196.621 15.6406 196.949 15.9766C197.277 16.3047 197.441 16.7773 197.441 17.3945C197.441 18.0039 197.27 18.4766 196.926 18.8125C196.59 19.1484 196.113 19.3164 195.496 19.3164C194.863 19.3164 194.383 19.1484 194.055 18.8125C193.727 18.4688 193.562 17.9961 193.562 17.3945ZM200.055 17.3945C200.055 16.7852 200.215 16.3125 200.535 15.9766C200.863 15.6406 201.348 15.4727 201.988 15.4727C202.629 15.4727 203.113 15.6406 203.441 15.9766C203.77 16.3047 203.934 16.7773 203.934 17.3945C203.934 18.0039 203.762 18.4766 203.418 18.8125C203.082 19.1484 202.605 19.3164 201.988 19.3164C201.355 19.3164 200.875 19.1484 200.547 18.8125C200.219 18.4688 200.055 17.9961 200.055 17.3945ZM206.547 17.3945C206.547 16.7852 206.707 16.3125 207.027 15.9766C207.355 15.6406 207.84 15.4727 208.48 15.4727C209.121 15.4727 209.605 15.6406 209.934 15.9766C210.262 16.3047 210.426 16.7773 210.426 17.3945C210.426 18.0039 210.254 18.4766 209.91 18.8125C209.574 19.1484 209.098 19.3164 208.48 19.3164C207.848 19.3164 207.367 19.1484 207.039 18.8125C206.711 18.4688 206.547 17.9961 206.547 17.3945ZM213.039 17.3945C213.039 16.7852 213.199 16.3125 213.52 15.9766C213.848 15.6406 214.332 15.4727 214.973 15.4727C215.613 15.4727 216.098 15.6406 216.426 15.9766C216.754 16.3047 216.918 16.7773 216.918 17.3945C216.918 18.0039 216.746 18.4766 216.402 18.8125C216.066 19.1484 215.59 19.3164 214.973 19.3164C214.34 19.3164 213.859 19.1484 213.531 18.8125C213.203 18.4688 213.039 17.9961 213.039 17.3945ZM219.531 17.3945C219.531 16.7852 219.691 16.3125 220.012 15.9766C220.34 15.6406 220.824 15.4727 221.465 15.4727C222.105 15.4727 222.59 15.6406 222.918 15.9766C223.246 16.3047 223.41 16.7773 223.41 17.3945C223.41 18.0039 223.238 18.4766 222.895 18.8125C222.559 19.1484 222.082 19.3164 221.465 19.3164C220.832 19.3164 220.352 19.1484 220.023 18.8125C219.695 18.4688 219.531 17.9961 219.531 17.3945ZM226.023 17.3945C226.023 16.7852 226.184 16.3125 226.504 15.9766C226.832 15.6406 227.316 15.4727 227.957 15.4727C228.598 15.4727 229.082 15.6406 229.41 15.9766C229.738 16.3047 229.902 16.7773 229.902 17.3945C229.902 18.0039 229.73 18.4766 229.387 18.8125C229.051 19.1484 228.574 19.3164 227.957 19.3164C227.324 19.3164 226.844 19.1484 226.516 18.8125C226.188 18.4688 226.023 17.9961 226.023 17.3945ZM232.516 17.3945C232.516 16.7852 232.676 16.3125 232.996 15.9766C233.324 15.6406 233.809 15.4727 234.449 15.4727C235.09 15.4727 235.574 15.6406 235.902 15.9766C236.23 16.3047 236.395 16.7773 236.395 17.3945C236.395 18.0039 236.223 18.4766 235.879 18.8125C235.543 19.1484 235.066 19.3164 234.449 19.3164C233.816 19.3164 233.336 19.1484 233.008 18.8125C232.68 18.4688 232.516 17.9961 232.516 17.3945ZM239.008 17.3945C239.008 16.7852 239.168 16.3125 239.488 15.9766C239.816 15.6406 240.301 15.4727 240.941 15.4727C241.582 15.4727 242.066 15.6406 242.395 15.9766C242.723 16.3047 242.887 16.7773 242.887 17.3945C242.887 18.0039 242.715 18.4766 242.371 18.8125C242.035 19.1484 241.559 19.3164 240.941 19.3164C240.309 19.3164 239.828 19.1484 239.5 18.8125C239.172 18.4688 239.008 17.9961 239.008 17.3945ZM245.5 17.3945C245.5 16.7852 245.66 16.3125 245.98 15.9766C246.309 15.6406 246.793 15.4727 247.434 15.4727C248.074 15.4727 248.559 15.6406 248.887 15.9766C249.215 16.3047 249.379 16.7773 249.379 17.3945C249.379 18.0039 249.207 18.4766 248.863 18.8125C248.527 19.1484 248.051 19.3164 247.434 19.3164C246.801 19.3164 246.32 19.1484 245.992 18.8125C245.664 18.4688 245.5 17.9961 245.5 17.3945ZM251.992 17.3945C251.992 16.7852 252.152 16.3125 252.473 15.9766C252.801 15.6406 253.285 15.4727 253.926 15.4727C254.566 15.4727 255.051 15.6406 255.379 15.9766C255.707 16.3047 255.871 16.7773 255.871 17.3945C255.871 18.0039 255.699 18.4766 255.355 18.8125C255.02 19.1484 254.543 19.3164 253.926 19.3164C253.293 19.3164 252.812 19.1484 252.484 18.8125C252.156 18.4688 251.992 17.9961 251.992 17.3945ZM258.484 17.3945C258.484 16.7852 258.645 16.3125 258.965 15.9766C259.293 15.6406 259.777 15.4727 260.418 15.4727C261.059 15.4727 261.543 15.6406 261.871 15.9766C262.199 16.3047 262.363 16.7773 262.363 17.3945C262.363 18.0039 262.191 18.4766 261.848 18.8125C261.512 19.1484 261.035 19.3164 260.418 19.3164C259.785 19.3164 259.305 19.1484 258.977 18.8125C258.648 18.4688 258.484 17.9961 258.484 17.3945ZM264.977 17.3945C264.977 16.7852 265.137 16.3125 265.457 15.9766C265.785 15.6406 266.27 15.4727 266.91 15.4727C267.551 15.4727 268.035 15.6406 268.363 15.9766C268.691 16.3047 268.855 16.7773 268.855 17.3945C268.855 18.0039 268.684 18.4766 268.34 18.8125C268.004 19.1484 267.527 19.3164 266.91 19.3164C266.277 19.3164 265.797 19.1484 265.469 18.8125C265.141 18.4688 264.977 17.9961 264.977 17.3945ZM271.469 17.3945C271.469 16.7852 271.629 16.3125 271.949 15.9766C272.277 15.6406 272.762 15.4727 273.402 15.4727C274.043 15.4727 274.527 15.6406 274.855 15.9766C275.184 16.3047 275.348 16.7773 275.348 17.3945C275.348 18.0039 275.176 18.4766 274.832 18.8125C274.496 19.1484 274.02 19.3164 273.402 19.3164C272.77 19.3164 272.289 19.1484 271.961 18.8125C271.633 18.4688 271.469 17.9961 271.469 17.3945ZM277.961 17.3945C277.961 16.7852 278.121 16.3125 278.441 15.9766C278.77 15.6406 279.254 15.4727 279.895 15.4727C280.535 15.4727 281.02 15.6406 281.348 15.9766C281.676 16.3047 281.84 16.7773 281.84 17.3945C281.84 18.0039 281.668 18.4766 281.324 18.8125C280.988 19.1484 280.512 19.3164 279.895 19.3164C279.262 19.3164 278.781 19.1484 278.453 18.8125C278.125 18.4688 277.961 17.9961 277.961 17.3945ZM284.453 17.3945C284.453 16.7852 284.613 16.3125 284.934 15.9766C285.262 15.6406 285.746 15.4727 286.387 15.4727C287.027 15.4727 287.512 15.6406 287.84 15.9766C288.168 16.3047 288.332 16.7773 288.332 17.3945C288.332 18.0039 288.16 18.4766 287.816 18.8125C287.48 19.1484 287.004 19.3164 286.387 19.3164C285.754 19.3164 285.273 19.1484 284.945 18.8125C284.617 18.4688 284.453 17.9961 284.453 17.3945ZM290.945 17.3945C290.945 16.7852 291.105 16.3125 291.426 15.9766C291.754 15.6406 292.238 15.4727 292.879 15.4727C293.52 15.4727 294.004 15.6406 294.332 15.9766C294.66 16.3047 294.824 16.7773 294.824 17.3945C294.824 18.0039 294.652 18.4766 294.309 18.8125C293.973 19.1484 293.496 19.3164 292.879 19.3164C292.246 19.3164 291.766 19.1484 291.438 18.8125C291.109 18.4688 290.945 17.9961 290.945 17.3945ZM297.438 17.3945C297.438 16.7852 297.598 16.3125 297.918 15.9766C298.246 15.6406 298.73 15.4727 299.371 15.4727C300.012 15.4727 300.496 15.6406 300.824 15.9766C301.152 16.3047 301.316 16.7773 301.316 17.3945C301.316 18.0039 301.145 18.4766 300.801 18.8125C300.465 19.1484 299.988 19.3164 299.371 19.3164C298.738 19.3164 298.258 19.1484 297.93 18.8125C297.602 18.4688 297.438 17.9961 297.438 17.3945ZM303.93 17.3945C303.93 16.7852 304.09 16.3125 304.41 15.9766C304.738 15.6406 305.223 15.4727 305.863 15.4727C306.504 15.4727 306.988 15.6406 307.316 15.9766C307.645 16.3047 307.809 16.7773 307.809 17.3945C307.809 18.0039 307.637 18.4766 307.293 18.8125C306.957 19.1484 306.48 19.3164 305.863 19.3164C305.23 19.3164 304.75 19.1484 304.422 18.8125C304.094 18.4688 303.93 17.9961 303.93 17.3945ZM310.422 17.3945C310.422 16.7852 310.582 16.3125 310.902 15.9766C311.23 15.6406 311.715 15.4727 312.355 15.4727C312.996 15.4727 313.48 15.6406 313.809 15.9766C314.137 16.3047 314.301 16.7773 314.301 17.3945C314.301 18.0039 314.129 18.4766 313.785 18.8125C313.449 19.1484 312.973 19.3164 312.355 19.3164C311.723 19.3164 311.242 19.1484 310.914 18.8125C310.586 18.4688 310.422 17.9961 310.422 17.3945ZM316.914 17.3945C316.914 16.7852 317.074 16.3125 317.395 15.9766C317.723 15.6406 318.207 15.4727 318.848 15.4727C319.488 15.4727 319.973 15.6406 320.301 15.9766C320.629 16.3047 320.793 16.7773 320.793 17.3945C320.793 18.0039 320.621 18.4766 320.277 18.8125C319.941 19.1484 319.465 19.3164 318.848 19.3164C318.215 19.3164 317.734 19.1484 317.406 18.8125C317.078 18.4688 316.914 17.9961 316.914 17.3945ZM323.406 17.3945C323.406 16.7852 323.566 16.3125 323.887 15.9766C324.215 15.6406 324.699 15.4727 325.34 15.4727C325.98 15.4727 326.465 15.6406 326.793 15.9766C327.121 16.3047 327.285 16.7773 327.285 17.3945C327.285 18.0039 327.113 18.4766 326.77 18.8125C326.434 19.1484 325.957 19.3164 325.34 19.3164C324.707 19.3164 324.227 19.1484 323.898 18.8125C323.57 18.4688 323.406 17.9961 323.406 17.3945ZM329.898 17.3945C329.898 16.7852 330.059 16.3125 330.379 15.9766C330.707 15.6406 331.191 15.4727 331.832 15.4727C332.473 15.4727 332.957 15.6406 333.285 15.9766C333.613 16.3047 333.777 16.7773 333.777 17.3945C333.777 18.0039 333.605 18.4766 333.262 18.8125C332.926 19.1484 332.449 19.3164 331.832 19.3164C331.199 19.3164 330.719 19.1484 330.391 18.8125C330.062 18.4688 329.898 17.9961 329.898 17.3945ZM336.391 17.3945C336.391 16.7852 336.551 16.3125 336.871 15.9766C337.199 15.6406 337.684 15.4727 338.324 15.4727C338.965 15.4727 339.449 15.6406 339.777 15.9766C340.105 16.3047 340.27 16.7773 340.27 17.3945C340.27 18.0039 340.098 18.4766 339.754 18.8125C339.418 19.1484 338.941 19.3164 338.324 19.3164C337.691 19.3164 337.211 19.1484 336.883 18.8125C336.555 18.4688 336.391 17.9961 336.391 17.3945ZM342.883 17.3945C342.883 16.7852 343.043 16.3125 343.363 15.9766C343.691 15.6406 344.176 15.4727 344.816 15.4727C345.457 15.4727 345.941 15.6406 346.27 15.9766C346.598 16.3047 346.762 16.7773 346.762 17.3945C346.762 18.0039 346.59 18.4766 346.246 18.8125C345.91 19.1484 345.434 19.3164 344.816 19.3164C344.184 19.3164 343.703 19.1484 343.375 18.8125C343.047 18.4688 342.883 17.9961 342.883 17.3945ZM349.375 17.3945C349.375 16.7852 349.535 16.3125 349.855 15.9766C350.184 15.6406 350.668 15.4727 351.309 15.4727C351.949 15.4727 352.434 15.6406 352.762 15.9766C353.09 16.3047 353.254 16.7773 353.254 17.3945C353.254 18.0039 353.082 18.4766 352.738 18.8125C352.402 19.1484 351.926 19.3164 351.309 19.3164C350.676 19.3164 350.195 19.1484 349.867 18.8125C349.539 18.4688 349.375 17.9961 349.375 17.3945ZM355.867 17.3945C355.867 16.7852 356.027 16.3125 356.348 15.9766C356.676 15.6406 357.16 15.4727 357.801 15.4727C358.441 15.4727 358.926 15.6406 359.254 15.9766C359.582 16.3047 359.746 16.7773 359.746 17.3945C359.746 18.0039 359.574 18.4766 359.23 18.8125C358.895 19.1484 358.418 19.3164 357.801 19.3164C357.168 19.3164 356.688 19.1484 356.359 18.8125C356.031 18.4688 355.867 17.9961 355.867 17.3945ZM362.359 17.3945C362.359 16.7852 362.52 16.3125 362.84 15.9766C363.168 15.6406 363.652 15.4727 364.293 15.4727C364.934 15.4727 365.418 15.6406 365.746 15.9766C366.074 16.3047 366.238 16.7773 366.238 17.3945C366.238 18.0039 366.066 18.4766 365.723 18.8125C365.387 19.1484 364.91 19.3164 364.293 19.3164C363.66 19.3164 363.18 19.1484 362.852 18.8125C362.523 18.4688 362.359 17.9961 362.359 17.3945ZM368.852 17.3945C368.852 16.7852 369.012 16.3125 369.332 15.9766C369.66 15.6406 370.145 15.4727 370.785 15.4727C371.426 15.4727 371.91 15.6406 372.238 15.9766C372.566 16.3047 372.73 16.7773 372.73 17.3945C372.73 18.0039 372.559 18.4766 372.215 18.8125C371.879 19.1484 371.402 19.3164 370.785 19.3164C370.152 19.3164 369.672 19.1484 369.344 18.8125C369.016 18.4688 368.852 17.9961 368.852 17.3945ZM375.344 17.3945C375.344 16.7852 375.504 16.3125 375.824 15.9766C376.152 15.6406 376.637 15.4727 377.277 15.4727C377.918 15.4727 378.402 15.6406 378.73 15.9766C379.059 16.3047 379.223 16.7773 379.223 17.3945C379.223 18.0039 379.051 18.4766 378.707 18.8125C378.371 19.1484 377.895 19.3164 377.277 19.3164C376.645 19.3164 376.164 19.1484 375.836 18.8125C375.508 18.4688 375.344 17.9961 375.344 17.3945ZM381.836 17.3945C381.836 16.7852 381.996 16.3125 382.316 15.9766C382.645 15.6406 383.129 15.4727 383.77 15.4727C384.41 15.4727 384.895 15.6406 385.223 15.9766C385.551 16.3047 385.715 16.7773 385.715 17.3945C385.715 18.0039 385.543 18.4766 385.199 18.8125C384.863 19.1484 384.387 19.3164 383.77 19.3164C383.137 19.3164 382.656 19.1484 382.328 18.8125C382 18.4688 381.836 17.9961 381.836 17.3945ZM388.328 17.3945C388.328 16.7852 388.488 16.3125 388.809 15.9766C389.137 15.6406 389.621 15.4727 390.262 15.4727C390.902 15.4727 391.387 15.6406 391.715 15.9766C392.043 16.3047 392.207 16.7773 392.207 17.3945C392.207 18.0039 392.035 18.4766 391.691 18.8125C391.355 19.1484 390.879 19.3164 390.262 19.3164C389.629 19.3164 389.148 19.1484 388.82 18.8125C388.492 18.4688 388.328 17.9961 388.328 17.3945ZM394.82 17.3945C394.82 16.7852 394.98 16.3125 395.301 15.9766C395.629 15.6406 396.113 15.4727 396.754 15.4727C397.395 15.4727 397.879 15.6406 398.207 15.9766C398.535 16.3047 398.699 16.7773 398.699 17.3945C398.699 18.0039 398.527 18.4766 398.184 18.8125C397.848 19.1484 397.371 19.3164 396.754 19.3164C396.121 19.3164 395.641 19.1484 395.312 18.8125C394.984 18.4688 394.82 17.9961 394.82 17.3945ZM401.312 17.3945C401.312 16.7852 401.473 16.3125 401.793 15.9766C402.121 15.6406 402.605 15.4727 403.246 15.4727C403.887 15.4727 404.371 15.6406 404.699 15.9766C405.027 16.3047 405.191 16.7773 405.191 17.3945C405.191 18.0039 405.02 18.4766 404.676 18.8125C404.34 19.1484 403.863 19.3164 403.246 19.3164C402.613 19.3164 402.133 19.1484 401.805 18.8125C401.477 18.4688 401.312 17.9961 401.312 17.3945ZM407.805 17.3945C407.805 16.7852 407.965 16.3125 408.285 15.9766C408.613 15.6406 409.098 15.4727 409.738 15.4727C410.379 15.4727 410.863 15.6406 411.191 15.9766C411.52 16.3047 411.684 16.7773 411.684 17.3945C411.684 18.0039 411.512 18.4766 411.168 18.8125C410.832 19.1484 410.355 19.3164 409.738 19.3164C409.105 19.3164 408.625 19.1484 408.297 18.8125C407.969 18.4688 407.805 17.9961 407.805 17.3945ZM414.297 17.3945C414.297 16.7852 414.457 16.3125 414.777 15.9766C415.105 15.6406 415.59 15.4727 416.23 15.4727C416.871 15.4727 417.355 15.6406 417.684 15.9766C418.012 16.3047 418.176 16.7773 418.176 17.3945C418.176 18.0039 418.004 18.4766 417.66 18.8125C417.324 19.1484 416.848 19.3164 416.23 19.3164C415.598 19.3164 415.117 19.1484 414.789 18.8125C414.461 18.4688 414.297 17.9961 414.297 17.3945ZM420.789 17.3945C420.789 16.7852 420.949 16.3125 421.27 15.9766C421.598 15.6406 422.082 15.4727 422.723 15.4727C423.363 15.4727 423.848 15.6406 424.176 15.9766C424.504 16.3047 424.668 16.7773 424.668 17.3945C424.668 18.0039 424.496 18.4766 424.152 18.8125C423.816 19.1484 423.34 19.3164 422.723 19.3164C422.09 19.3164 421.609 19.1484 421.281 18.8125C420.953 18.4688 420.789 17.9961 420.789 17.3945ZM427.281 17.3945C427.281 16.7852 427.441 16.3125 427.762 15.9766C428.09 15.6406 428.574 15.4727 429.215 15.4727C429.855 15.4727 430.34 15.6406 430.668 15.9766C430.996 16.3047 431.16 16.7773 431.16 17.3945C431.16 18.0039 430.988 18.4766 430.645 18.8125C430.309 19.1484 429.832 19.3164 429.215 19.3164C428.582 19.3164 428.102 19.1484 427.773 18.8125C427.445 18.4688 427.281 17.9961 427.281 17.3945ZM433.773 17.3945C433.773 16.7852 433.934 16.3125 434.254 15.9766C434.582 15.6406 435.066 15.4727 435.707 15.4727C436.348 15.4727 436.832 15.6406 437.16 15.9766C437.488 16.3047 437.652 16.7773 437.652 17.3945C437.652 18.0039 437.48 18.4766 437.137 18.8125C436.801 19.1484 436.324 19.3164 435.707 19.3164C435.074 19.3164 434.594 19.1484 434.266 18.8125C433.938 18.4688 433.773 17.9961 433.773 17.3945ZM440.266 17.3945C440.266 16.7852 440.426 16.3125 440.746 15.9766C441.074 15.6406 441.559 15.4727 442.199 15.4727C442.84 15.4727 443.324 15.6406 443.652 15.9766C443.98 16.3047 444.145 16.7773 444.145 17.3945C444.145 18.0039 443.973 18.4766 443.629 18.8125C443.293 19.1484 442.816 19.3164 442.199 19.3164C441.566 19.3164 441.086 19.1484 440.758 18.8125C440.43 18.4688 440.266 17.9961 440.266 17.3945ZM446.758 17.3945C446.758 16.7852 446.918 16.3125 447.238 15.9766C447.566 15.6406 448.051 15.4727 448.691 15.4727C449.332 15.4727 449.816 15.6406 450.145 15.9766C450.473 16.3047 450.637 16.7773 450.637 17.3945C450.637 18.0039 450.465 18.4766 450.121 18.8125C449.785 19.1484 449.309 19.3164 448.691 19.3164C448.059 19.3164 447.578 19.1484 447.25 18.8125C446.922 18.4688 446.758 17.9961 446.758 17.3945ZM453.25 17.3945C453.25 16.7852 453.41 16.3125 453.73 15.9766C454.059 15.6406 454.543 15.4727 455.184 15.4727C455.824 15.4727 456.309 15.6406 456.637 15.9766C456.965 16.3047 457.129 16.7773 457.129 17.3945C457.129 18.0039 456.957 18.4766 456.613 18.8125C456.277 19.1484 455.801 19.3164 455.184 19.3164C454.551 19.3164 454.07 19.1484 453.742 18.8125C453.414 18.4688 453.25 17.9961 453.25 17.3945ZM459.742 17.3945C459.742 16.7852 459.902 16.3125 460.223 15.9766C460.551 15.6406 461.035 15.4727 461.676 15.4727C462.316 15.4727 462.801 15.6406 463.129 15.9766C463.457 16.3047 463.621 16.7773 463.621 17.3945C463.621 18.0039 463.449 18.4766 463.105 18.8125C462.77 19.1484 462.293 19.3164 461.676 19.3164C461.043 19.3164 460.562 19.1484 460.234 18.8125C459.906 18.4688 459.742 17.9961 459.742 17.3945ZM466.234 17.3945C466.234 16.7852 466.395 16.3125 466.715 15.9766C467.043 15.6406 467.527 15.4727 468.168 15.4727C468.809 15.4727 469.293 15.6406 469.621 15.9766C469.949 16.3047 470.113 16.7773 470.113 17.3945C470.113 18.0039 469.941 18.4766 469.598 18.8125C469.262 19.1484 468.785 19.3164 468.168 19.3164C467.535 19.3164 467.055 19.1484 466.727 18.8125C466.398 18.4688 466.234 17.9961 466.234 17.3945ZM472.727 17.3945C472.727 16.7852 472.887 16.3125 473.207 15.9766C473.535 15.6406 474.02 15.4727 474.66 15.4727C475.301 15.4727 475.785 15.6406 476.113 15.9766C476.441 16.3047 476.605 16.7773 476.605 17.3945C476.605 18.0039 476.434 18.4766 476.09 18.8125C475.754 19.1484 475.277 19.3164 474.66 19.3164C474.027 19.3164 473.547 19.1484 473.219 18.8125C472.891 18.4688 472.727 17.9961 472.727 17.3945ZM479.219 17.3945C479.219 16.7852 479.379 16.3125 479.699 15.9766C480.027 15.6406 480.512 15.4727 481.152 15.4727C481.793 15.4727 482.277 15.6406 482.605 15.9766C482.934 16.3047 483.098 16.7773 483.098 17.3945C483.098 18.0039 482.926 18.4766 482.582 18.8125C482.246 19.1484 481.77 19.3164 481.152 19.3164C480.52 19.3164 480.039 19.1484 479.711 18.8125C479.383 18.4688 479.219 17.9961 479.219 17.3945ZM485.711 17.3945C485.711 16.7852 485.871 16.3125 486.191 15.9766C486.52 15.6406 487.004 15.4727 487.645 15.4727C488.285 15.4727 488.77 15.6406 489.098 15.9766C489.426 16.3047 489.59 16.7773 489.59 17.3945C489.59 18.0039 489.418 18.4766 489.074 18.8125C488.738 19.1484 488.262 19.3164 487.645 19.3164C487.012 19.3164 486.531 19.1484 486.203 18.8125C485.875 18.4688 485.711 17.9961 485.711 17.3945ZM492.203 17.3945C492.203 16.7852 492.363 16.3125 492.684 15.9766C493.012 15.6406 493.496 15.4727 494.137 15.4727C494.777 15.4727 495.262 15.6406 495.59 15.9766C495.918 16.3047 496.082 16.7773 496.082 17.3945C496.082 18.0039 495.91 18.4766 495.566 18.8125C495.23 19.1484 494.754 19.3164 494.137 19.3164C493.504 19.3164 493.023 19.1484 492.695 18.8125C492.367 18.4688 492.203 17.9961 492.203 17.3945ZM498.695 17.3945C498.695 16.7852 498.855 16.3125 499.176 15.9766C499.504 15.6406 499.988 15.4727 500.629 15.4727C501.27 15.4727 501.754 15.6406 502.082 15.9766C502.41 16.3047 502.574 16.7773 502.574 17.3945C502.574 18.0039 502.402 18.4766 502.059 18.8125C501.723 19.1484 501.246 19.3164 500.629 19.3164C499.996 19.3164 499.516 19.1484 499.188 18.8125C498.859 18.4688 498.695 17.9961 498.695 17.3945ZM505.188 17.3945C505.188 16.7852 505.348 16.3125 505.668 15.9766C505.996 15.6406 506.48 15.4727 507.121 15.4727C507.762 15.4727 508.246 15.6406 508.574 15.9766C508.902 16.3047 509.066 16.7773 509.066 17.3945C509.066 18.0039 508.895 18.4766 508.551 18.8125C508.215 19.1484 507.738 19.3164 507.121 19.3164C506.488 19.3164 506.008 19.1484 505.68 18.8125C505.352 18.4688 505.188 17.9961 505.188 17.3945ZM511.68 17.3945C511.68 16.7852 511.84 16.3125 512.16 15.9766C512.488 15.6406 512.973 15.4727 513.613 15.4727C514.254 15.4727 514.738 15.6406 515.066 15.9766C515.395 16.3047 515.559 16.7773 515.559 17.3945C515.559 18.0039 515.387 18.4766 515.043 18.8125C514.707 19.1484 514.23 19.3164 513.613 19.3164C512.98 19.3164 512.5 19.1484 512.172 18.8125C511.844 18.4688 511.68 17.9961 511.68 17.3945ZM518.172 17.3945C518.172 16.7852 518.332 16.3125 518.652 15.9766C518.98 15.6406 519.465 15.4727 520.105 15.4727C520.746 15.4727 521.23 15.6406 521.559 15.9766C521.887 16.3047 522.051 16.7773 522.051 17.3945C522.051 18.0039 521.879 18.4766 521.535 18.8125C521.199 19.1484 520.723 19.3164 520.105 19.3164C519.473 19.3164 518.992 19.1484 518.664 18.8125C518.336 18.4688 518.172 17.9961 518.172 17.3945ZM524.664 17.3945C524.664 16.7852 524.824 16.3125 525.145 15.9766C525.473 15.6406 525.957 15.4727 526.598 15.4727C527.238 15.4727 527.723 15.6406 528.051 15.9766C528.379 16.3047 528.543 16.7773 528.543 17.3945C528.543 18.0039 528.371 18.4766 528.027 18.8125C527.691 19.1484 527.215 19.3164 526.598 19.3164C525.965 19.3164 525.484 19.1484 525.156 18.8125C524.828 18.4688 524.664 17.9961 524.664 17.3945ZM531.156 17.3945C531.156 16.7852 531.316 16.3125 531.637 15.9766C531.965 15.6406 532.449 15.4727 533.09 15.4727C533.73 15.4727 534.215 15.6406 534.543 15.9766C534.871 16.3047 535.035 16.7773 535.035 17.3945C535.035 18.0039 534.863 18.4766 534.52 18.8125C534.184 19.1484 533.707 19.3164 533.09 19.3164C532.457 19.3164 531.977 19.1484 531.648 18.8125C531.32 18.4688 531.156 17.9961 531.156 17.3945ZM537.648 17.3945C537.648 16.7852 537.809 16.3125 538.129 15.9766C538.457 15.6406 538.941 15.4727 539.582 15.4727C540.223 15.4727 540.707 15.6406 541.035 15.9766C541.363 16.3047 541.527 16.7773 541.527 17.3945C541.527 18.0039 541.355 18.4766 541.012 18.8125C540.676 19.1484 540.199 19.3164 539.582 19.3164C538.949 19.3164 538.469 19.1484 538.141 18.8125C537.812 18.4688 537.648 17.9961 537.648 17.3945ZM544.141 17.3945C544.141 16.7852 544.301 16.3125 544.621 15.9766C544.949 15.6406 545.434 15.4727 546.074 15.4727C546.715 15.4727 547.199 15.6406 547.527 15.9766C547.855 16.3047 548.02 16.7773 548.02 17.3945C548.02 18.0039 547.848 18.4766 547.504 18.8125C547.168 19.1484 546.691 19.3164 546.074 19.3164C545.441 19.3164 544.961 19.1484 544.633 18.8125C544.305 18.4688 544.141 17.9961 544.141 17.3945ZM550.633 17.3945C550.633 16.7852 550.793 16.3125 551.113 15.9766C551.441 15.6406 551.926 15.4727 552.566 15.4727C553.207 15.4727 553.691 15.6406 554.02 15.9766C554.348 16.3047 554.512 16.7773 554.512 17.3945C554.512 18.0039 554.34 18.4766 553.996 18.8125C553.66 19.1484 553.184 19.3164 552.566 19.3164C551.934 19.3164 551.453 19.1484 551.125 18.8125C550.797 18.4688 550.633 17.9961 550.633 17.3945ZM557.125 17.3945C557.125 16.7852 557.285 16.3125 557.605 15.9766C557.934 15.6406 558.418 15.4727 559.059 15.4727C559.699 15.4727 560.184 15.6406 560.512 15.9766C560.84 16.3047 561.004 16.7773 561.004 17.3945C561.004 18.0039 560.832 18.4766 560.488 18.8125C560.152 19.1484 559.676 19.3164 559.059 19.3164C558.426 19.3164 557.945 19.1484 557.617 18.8125C557.289 18.4688 557.125 17.9961 557.125 17.3945ZM563.617 17.3945C563.617 16.7852 563.777 16.3125 564.098 15.9766C564.426 15.6406 564.91 15.4727 565.551 15.4727C566.191 15.4727 566.676 15.6406 567.004 15.9766C567.332 16.3047 567.496 16.7773 567.496 17.3945C567.496 18.0039 567.324 18.4766 566.98 18.8125C566.645 19.1484 566.168 19.3164 565.551 19.3164C564.918 19.3164 564.438 19.1484 564.109 18.8125C563.781 18.4688 563.617 17.9961 563.617 17.3945ZM570.109 17.3945C570.109 16.7852 570.27 16.3125 570.59 15.9766C570.918 15.6406 571.402 15.4727 572.043 15.4727C572.684 15.4727 573.168 15.6406 573.496 15.9766C573.824 16.3047 573.988 16.7773 573.988 17.3945C573.988 18.0039 573.816 18.4766 573.473 18.8125C573.137 19.1484 572.66 19.3164 572.043 19.3164C571.41 19.3164 570.93 19.1484 570.602 18.8125C570.273 18.4688 570.109 17.9961 570.109 17.3945ZM576.602 17.3945C576.602 16.7852 576.762 16.3125 577.082 15.9766C577.41 15.6406 577.895 15.4727 578.535 15.4727C579.176 15.4727 579.66 15.6406 579.988 15.9766C580.316 16.3047 580.48 16.7773 580.48 17.3945C580.48 18.0039 580.309 18.4766 579.965 18.8125C579.629 19.1484 579.152 19.3164 578.535 19.3164C577.902 19.3164 577.422 19.1484 577.094 18.8125C576.766 18.4688 576.602 17.9961 576.602 17.3945ZM583.094 17.3945C583.094 16.7852 583.254 16.3125 583.574 15.9766C583.902 15.6406 584.387 15.4727 585.027 15.4727C585.668 15.4727 586.152 15.6406 586.48 15.9766C586.809 16.3047 586.973 16.7773 586.973 17.3945C586.973 18.0039 586.801 18.4766 586.457 18.8125C586.121 19.1484 585.645 19.3164 585.027 19.3164C584.395 19.3164 583.914 19.1484 583.586 18.8125C583.258 18.4688 583.094 17.9961 583.094 17.3945ZM589.586 17.3945C589.586 16.7852 589.746 16.3125 590.066 15.9766C590.395 15.6406 590.879 15.4727 591.52 15.4727C592.16 15.4727 592.645 15.6406 592.973 15.9766C593.301 16.3047 593.465 16.7773 593.465 17.3945C593.465 18.0039 593.293 18.4766 592.949 18.8125C592.613 19.1484 592.137 19.3164 591.52 19.3164C590.887 19.3164 590.406 19.1484 590.078 18.8125C589.75 18.4688 589.586 17.9961 589.586 17.3945ZM596.078 17.3945C596.078 16.7852 596.238 16.3125 596.559 15.9766C596.887 15.6406 597.371 15.4727 598.012 15.4727C598.652 15.4727 599.137 15.6406 599.465 15.9766C599.793 16.3047 599.957 16.7773 599.957 17.3945C599.957 18.0039 599.785 18.4766 599.441 18.8125C599.105 19.1484 598.629 19.3164 598.012 19.3164C597.379 19.3164 596.898 19.1484 596.57 18.8125C596.242 18.4688 596.078 17.9961 596.078 17.3945ZM602.57 17.3945C602.57 16.7852 602.73 16.3125 603.051 15.9766C603.379 15.6406 603.863 15.4727 604.504 15.4727C605.145 15.4727 605.629 15.6406 605.957 15.9766C606.285 16.3047 606.449 16.7773 606.449 17.3945C606.449 18.0039 606.277 18.4766 605.934 18.8125C605.598 19.1484 605.121 19.3164 604.504 19.3164C603.871 19.3164 603.391 19.1484 603.062 18.8125C602.734 18.4688 602.57 17.9961 602.57 17.3945ZM609.062 17.3945C609.062 16.7852 609.223 16.3125 609.543 15.9766C609.871 15.6406 610.355 15.4727 610.996 15.4727C611.637 15.4727 612.121 15.6406 612.449 15.9766C612.777 16.3047 612.941 16.7773 612.941 17.3945C612.941 18.0039 612.77 18.4766 612.426 18.8125C612.09 19.1484 611.613 19.3164 610.996 19.3164C610.363 19.3164 609.883 19.1484 609.555 18.8125C609.227 18.4688 609.062 17.9961 609.062 17.3945ZM615.555 17.3945C615.555 16.7852 615.715 16.3125 616.035 15.9766C616.363 15.6406 616.848 15.4727 617.488 15.4727C618.129 15.4727 618.613 15.6406 618.941 15.9766C619.27 16.3047 619.434 16.7773 619.434 17.3945C619.434 18.0039 619.262 18.4766 618.918 18.8125C618.582 19.1484 618.105 19.3164 617.488 19.3164C616.855 19.3164 616.375 19.1484 616.047 18.8125C615.719 18.4688 615.555 17.9961 615.555 17.3945ZM622.047 17.3945C622.047 16.7852 622.207 16.3125 622.527 15.9766C622.855 15.6406 623.34 15.4727 623.98 15.4727C624.621 15.4727 625.105 15.6406 625.434 15.9766C625.762 16.3047 625.926 16.7773 625.926 17.3945C625.926 18.0039 625.754 18.4766 625.41 18.8125C625.074 19.1484 624.598 19.3164 623.98 19.3164C623.348 19.3164 622.867 19.1484 622.539 18.8125C622.211 18.4688 622.047 17.9961 622.047 17.3945ZM628.539 17.3945C628.539 16.7852 628.699 16.3125 629.02 15.9766C629.348 15.6406 629.832 15.4727 630.473 15.4727C631.113 15.4727 631.598 15.6406 631.926 15.9766C632.254 16.3047 632.418 16.7773 632.418 17.3945C632.418 18.0039 632.246 18.4766 631.902 18.8125C631.566 19.1484 631.09 19.3164 630.473 19.3164C629.84 19.3164 629.359 19.1484 629.031 18.8125C628.703 18.4688 628.539 17.9961 628.539 17.3945ZM635.031 17.3945C635.031 16.7852 635.191 16.3125 635.512 15.9766C635.84 15.6406 636.324 15.4727 636.965 15.4727C637.605 15.4727 638.09 15.6406 638.418 15.9766C638.746 16.3047 638.91 16.7773 638.91 17.3945C638.91 18.0039 638.738 18.4766 638.395 18.8125C638.059 19.1484 637.582 19.3164 636.965 19.3164C636.332 19.3164 635.852 19.1484 635.523 18.8125C635.195 18.4688 635.031 17.9961 635.031 17.3945ZM641.523 17.3945C641.523 16.7852 641.684 16.3125 642.004 15.9766C642.332 15.6406 642.816 15.4727 643.457 15.4727C644.098 15.4727 644.582 15.6406 644.91 15.9766C645.238 16.3047 645.402 16.7773 645.402 17.3945C645.402 18.0039 645.23 18.4766 644.887 18.8125C644.551 19.1484 644.074 19.3164 643.457 19.3164C642.824 19.3164 642.344 19.1484 642.016 18.8125C641.688 18.4688 641.523 17.9961 641.523 17.3945ZM648.016 17.3945C648.016 16.7852 648.176 16.3125 648.496 15.9766C648.824 15.6406 649.309 15.4727 649.949 15.4727C650.59 15.4727 651.074 15.6406 651.402 15.9766C651.73 16.3047 651.895 16.7773 651.895 17.3945C651.895 18.0039 651.723 18.4766 651.379 18.8125C651.043 19.1484 650.566 19.3164 649.949 19.3164C649.316 19.3164 648.836 19.1484 648.508 18.8125C648.18 18.4688 648.016 17.9961 648.016 17.3945ZM654.508 17.3945C654.508 16.7852 654.668 16.3125 654.988 15.9766C655.316 15.6406 655.801 15.4727 656.441 15.4727C657.082 15.4727 657.566 15.6406 657.895 15.9766C658.223 16.3047 658.387 16.7773 658.387 17.3945C658.387 18.0039 658.215 18.4766 657.871 18.8125C657.535 19.1484 657.059 19.3164 656.441 19.3164C655.809 19.3164 655.328 19.1484 655 18.8125C654.672 18.4688 654.508 17.9961 654.508 17.3945ZM661 17.3945C661 16.7852 661.16 16.3125 661.48 15.9766C661.809 15.6406 662.293 15.4727 662.934 15.4727C663.574 15.4727 664.059 15.6406 664.387 15.9766C664.715 16.3047 664.879 16.7773 664.879 17.3945C664.879 18.0039 664.707 18.4766 664.363 18.8125C664.027 19.1484 663.551 19.3164 662.934 19.3164C662.301 19.3164 661.82 19.1484 661.492 18.8125C661.164 18.4688 661 17.9961 661 17.3945ZM667.492 17.3945C667.492 16.7852 667.652 16.3125 667.973 15.9766C668.301 15.6406 668.785 15.4727 669.426 15.4727C670.066 15.4727 670.551 15.6406 670.879 15.9766C671.207 16.3047 671.371 16.7773 671.371 17.3945C671.371 18.0039 671.199 18.4766 670.855 18.8125C670.52 19.1484 670.043 19.3164 669.426 19.3164C668.793 19.3164 668.312 19.1484 667.984 18.8125C667.656 18.4688 667.492 17.9961 667.492 17.3945ZM673.984 17.3945C673.984 16.7852 674.145 16.3125 674.465 15.9766C674.793 15.6406 675.277 15.4727 675.918 15.4727C676.559 15.4727 677.043 15.6406 677.371 15.9766C677.699 16.3047 677.863 16.7773 677.863 17.3945C677.863 18.0039 677.691 18.4766 677.348 18.8125C677.012 19.1484 676.535 19.3164 675.918 19.3164C675.285 19.3164 674.805 19.1484 674.477 18.8125C674.148 18.4688 673.984 17.9961 673.984 17.3945ZM680.477 17.3945C680.477 16.7852 680.637 16.3125 680.957 15.9766C681.285 15.6406 681.77 15.4727 682.41 15.4727C683.051 15.4727 683.535 15.6406 683.863 15.9766C684.191 16.3047 684.355 16.7773 684.355 17.3945C684.355 18.0039 684.184 18.4766 683.84 18.8125C683.504 19.1484 683.027 19.3164 682.41 19.3164C681.777 19.3164 681.297 19.1484 680.969 18.8125C680.641 18.4688 680.477 17.9961 680.477 17.3945ZM686.969 17.3945C686.969 16.7852 687.129 16.3125 687.449 15.9766C687.777 15.6406 688.262 15.4727 688.902 15.4727C689.543 15.4727 690.027 15.6406 690.355 15.9766C690.684 16.3047 690.848 16.7773 690.848 17.3945C690.848 18.0039 690.676 18.4766 690.332 18.8125C689.996 19.1484 689.52 19.3164 688.902 19.3164C688.27 19.3164 687.789 19.1484 687.461 18.8125C687.133 18.4688 686.969 17.9961 686.969 17.3945ZM693.461 17.3945C693.461 16.7852 693.621 16.3125 693.941 15.9766C694.27 15.6406 694.754 15.4727 695.395 15.4727C696.035 15.4727 696.52 15.6406 696.848 15.9766C697.176 16.3047 697.34 16.7773 697.34 17.3945C697.34 18.0039 697.168 18.4766 696.824 18.8125C696.488 19.1484 696.012 19.3164 695.395 19.3164C694.762 19.3164 694.281 19.1484 693.953 18.8125C693.625 18.4688 693.461 17.9961 693.461 17.3945ZM699.953 17.3945C699.953 16.7852 700.113 16.3125 700.434 15.9766C700.762 15.6406 701.246 15.4727 701.887 15.4727C702.527 15.4727 703.012 15.6406 703.34 15.9766C703.668 16.3047 703.832 16.7773 703.832 17.3945C703.832 18.0039 703.66 18.4766 703.316 18.8125C702.98 19.1484 702.504 19.3164 701.887 19.3164C701.254 19.3164 700.773 19.1484 700.445 18.8125C700.117 18.4688 699.953 17.9961 699.953 17.3945ZM706.445 17.3945C706.445 16.7852 706.605 16.3125 706.926 15.9766C707.254 15.6406 707.738 15.4727 708.379 15.4727C709.02 15.4727 709.504 15.6406 709.832 15.9766C710.16 16.3047 710.324 16.7773 710.324 17.3945C710.324 18.0039 710.152 18.4766 709.809 18.8125C709.473 19.1484 708.996 19.3164 708.379 19.3164C707.746 19.3164 707.266 19.1484 706.938 18.8125C706.609 18.4688 706.445 17.9961 706.445 17.3945ZM712.938 17.3945C712.938 16.7852 713.098 16.3125 713.418 15.9766C713.746 15.6406 714.23 15.4727 714.871 15.4727C715.512 15.4727 715.996 15.6406 716.324 15.9766C716.652 16.3047 716.816 16.7773 716.816 17.3945C716.816 18.0039 716.645 18.4766 716.301 18.8125C715.965 19.1484 715.488 19.3164 714.871 19.3164C714.238 19.3164 713.758 19.1484 713.43 18.8125C713.102 18.4688 712.938 17.9961 712.938 17.3945ZM719.43 17.3945C719.43 16.7852 719.59 16.3125 719.91 15.9766C720.238 15.6406 720.723 15.4727 721.363 15.4727C722.004 15.4727 722.488 15.6406 722.816 15.9766C723.145 16.3047 723.309 16.7773 723.309 17.3945C723.309 18.0039 723.137 18.4766 722.793 18.8125C722.457 19.1484 721.98 19.3164 721.363 19.3164C720.73 19.3164 720.25 19.1484 719.922 18.8125C719.594 18.4688 719.43 17.9961 719.43 17.3945ZM725.922 17.3945C725.922 16.7852 726.082 16.3125 726.402 15.9766C726.73 15.6406 727.215 15.4727 727.855 15.4727C728.496 15.4727 728.98 15.6406 729.309 15.9766C729.637 16.3047 729.801 16.7773 729.801 17.3945C729.801 18.0039 729.629 18.4766 729.285 18.8125C728.949 19.1484 728.473 19.3164 727.855 19.3164C727.223 19.3164 726.742 19.1484 726.414 18.8125C726.086 18.4688 725.922 17.9961 725.922 17.3945ZM732.414 17.3945C732.414 16.7852 732.574 16.3125 732.895 15.9766C733.223 15.6406 733.707 15.4727 734.348 15.4727C734.988 15.4727 735.473 15.6406 735.801 15.9766C736.129 16.3047 736.293 16.7773 736.293 17.3945C736.293 18.0039 736.121 18.4766 735.777 18.8125C735.441 19.1484 734.965 19.3164 734.348 19.3164C733.715 19.3164 733.234 19.1484 732.906 18.8125C732.578 18.4688 732.414 17.9961 732.414 17.3945ZM738.906 17.3945C738.906 16.7852 739.066 16.3125 739.387 15.9766C739.715 15.6406 740.199 15.4727 740.84 15.4727C741.48 15.4727 741.965 15.6406 742.293 15.9766C742.621 16.3047 742.785 16.7773 742.785 17.3945C742.785 18.0039 742.613 18.4766 742.27 18.8125C741.934 19.1484 741.457 19.3164 740.84 19.3164C740.207 19.3164 739.727 19.1484 739.398 18.8125C739.07 18.4688 738.906 17.9961 738.906 17.3945ZM745.398 17.3945C745.398 16.7852 745.559 16.3125 745.879 15.9766C746.207 15.6406 746.691 15.4727 747.332 15.4727C747.973 15.4727 748.457 15.6406 748.785 15.9766C749.113 16.3047 749.277 16.7773 749.277 17.3945C749.277 18.0039 749.105 18.4766 748.762 18.8125C748.426 19.1484 747.949 19.3164 747.332 19.3164C746.699 19.3164 746.219 19.1484 745.891 18.8125C745.562 18.4688 745.398 17.9961 745.398 17.3945ZM751.891 17.3945C751.891 16.7852 752.051 16.3125 752.371 15.9766C752.699 15.6406 753.184 15.4727 753.824 15.4727C754.465 15.4727 754.949 15.6406 755.277 15.9766C755.605 16.3047 755.77 16.7773 755.77 17.3945C755.77 18.0039 755.598 18.4766 755.254 18.8125C754.918 19.1484 754.441 19.3164 753.824 19.3164C753.191 19.3164 752.711 19.1484 752.383 18.8125C752.055 18.4688 751.891 17.9961 751.891 17.3945ZM758.383 17.3945C758.383 16.7852 758.543 16.3125 758.863 15.9766C759.191 15.6406 759.676 15.4727 760.316 15.4727C760.957 15.4727 761.441 15.6406 761.77 15.9766C762.098 16.3047 762.262 16.7773 762.262 17.3945C762.262 18.0039 762.09 18.4766 761.746 18.8125C761.41 19.1484 760.934 19.3164 760.316 19.3164C759.684 19.3164 759.203 19.1484 758.875 18.8125C758.547 18.4688 758.383 17.9961 758.383 17.3945ZM764.875 17.3945C764.875 16.7852 765.035 16.3125 765.355 15.9766C765.684 15.6406 766.168 15.4727 766.809 15.4727C767.449 15.4727 767.934 15.6406 768.262 15.9766C768.59 16.3047 768.754 16.7773 768.754 17.3945C768.754 18.0039 768.582 18.4766 768.238 18.8125C767.902 19.1484 767.426 19.3164 766.809 19.3164C766.176 19.3164 765.695 19.1484 765.367 18.8125C765.039 18.4688 764.875 17.9961 764.875 17.3945ZM771.367 17.3945C771.367 16.7852 771.527 16.3125 771.848 15.9766C772.176 15.6406 772.66 15.4727 773.301 15.4727C773.941 15.4727 774.426 15.6406 774.754 15.9766C775.082 16.3047 775.246 16.7773 775.246 17.3945C775.246 18.0039 775.074 18.4766 774.73 18.8125C774.395 19.1484 773.918 19.3164 773.301 19.3164C772.668 19.3164 772.188 19.1484 771.859 18.8125C771.531 18.4688 771.367 17.9961 771.367 17.3945ZM777.859 17.3945C777.859 16.7852 778.02 16.3125 778.34 15.9766C778.668 15.6406 779.152 15.4727 779.793 15.4727C780.434 15.4727 780.918 15.6406 781.246 15.9766C781.574 16.3047 781.738 16.7773 781.738 17.3945C781.738 18.0039 781.566 18.4766 781.223 18.8125C780.887 19.1484 780.41 19.3164 779.793 19.3164C779.16 19.3164 778.68 19.1484 778.352 18.8125C778.023 18.4688 777.859 17.9961 777.859 17.3945ZM784.352 17.3945C784.352 16.7852 784.512 16.3125 784.832 15.9766C785.16 15.6406 785.645 15.4727 786.285 15.4727C786.926 15.4727 787.41 15.6406 787.738 15.9766C788.066 16.3047 788.23 16.7773 788.23 17.3945C788.23 18.0039 788.059 18.4766 787.715 18.8125C787.379 19.1484 786.902 19.3164 786.285 19.3164C785.652 19.3164 785.172 19.1484 784.844 18.8125C784.516 18.4688 784.352 17.9961 784.352 17.3945ZM790.844 17.3945C790.844 16.7852 791.004 16.3125 791.324 15.9766C791.652 15.6406 792.137 15.4727 792.777 15.4727C793.418 15.4727 793.902 15.6406 794.23 15.9766C794.559 16.3047 794.723 16.7773 794.723 17.3945C794.723 18.0039 794.551 18.4766 794.207 18.8125C793.871 19.1484 793.395 19.3164 792.777 19.3164C792.145 19.3164 791.664 19.1484 791.336 18.8125C791.008 18.4688 790.844 17.9961 790.844 17.3945ZM797.336 17.3945C797.336 16.7852 797.496 16.3125 797.816 15.9766C798.145 15.6406 798.629 15.4727 799.27 15.4727C799.91 15.4727 800.395 15.6406 800.723 15.9766C801.051 16.3047 801.215 16.7773 801.215 17.3945C801.215 18.0039 801.043 18.4766 800.699 18.8125C800.363 19.1484 799.887 19.3164 799.27 19.3164C798.637 19.3164 798.156 19.1484 797.828 18.8125C797.5 18.4688 797.336 17.9961 797.336 17.3945ZM803.828 17.3945C803.828 16.7852 803.988 16.3125 804.309 15.9766C804.637 15.6406 805.121 15.4727 805.762 15.4727C806.402 15.4727 806.887 15.6406 807.215 15.9766C807.543 16.3047 807.707 16.7773 807.707 17.3945C807.707 18.0039 807.535 18.4766 807.191 18.8125C806.855 19.1484 806.379 19.3164 805.762 19.3164C805.129 19.3164 804.648 19.1484 804.32 18.8125C803.992 18.4688 803.828 17.9961 803.828 17.3945ZM810.32 17.3945C810.32 16.7852 810.48 16.3125 810.801 15.9766C811.129 15.6406 811.613 15.4727 812.254 15.4727C812.895 15.4727 813.379 15.6406 813.707 15.9766C814.035 16.3047 814.199 16.7773 814.199 17.3945C814.199 18.0039 814.027 18.4766 813.684 18.8125C813.348 19.1484 812.871 19.3164 812.254 19.3164C811.621 19.3164 811.141 19.1484 810.812 18.8125C810.484 18.4688 810.32 17.9961 810.32 17.3945ZM816.812 17.3945C816.812 16.7852 816.973 16.3125 817.293 15.9766C817.621 15.6406 818.105 15.4727 818.746 15.4727C819.387 15.4727 819.871 15.6406 820.199 15.9766C820.527 16.3047 820.691 16.7773 820.691 17.3945C820.691 18.0039 820.52 18.4766 820.176 18.8125C819.84 19.1484 819.363 19.3164 818.746 19.3164C818.113 19.3164 817.633 19.1484 817.305 18.8125C816.977 18.4688 816.812 17.9961 816.812 17.3945ZM823.305 17.3945C823.305 16.7852 823.465 16.3125 823.785 15.9766C824.113 15.6406 824.598 15.4727 825.238 15.4727C825.879 15.4727 826.363 15.6406 826.691 15.9766C827.02 16.3047 827.184 16.7773 827.184 17.3945C827.184 18.0039 827.012 18.4766 826.668 18.8125C826.332 19.1484 825.855 19.3164 825.238 19.3164C824.605 19.3164 824.125 19.1484 823.797 18.8125C823.469 18.4688 823.305 17.9961 823.305 17.3945ZM829.797 17.3945C829.797 16.7852 829.957 16.3125 830.277 15.9766C830.605 15.6406 831.09 15.4727 831.73 15.4727C832.371 15.4727 832.855 15.6406 833.184 15.9766C833.512 16.3047 833.676 16.7773 833.676 17.3945C833.676 18.0039 833.504 18.4766 833.16 18.8125C832.824 19.1484 832.348 19.3164 831.73 19.3164C831.098 19.3164 830.617 19.1484 830.289 18.8125C829.961 18.4688 829.797 17.9961 829.797 17.3945ZM836.289 17.3945C836.289 16.7852 836.449 16.3125 836.77 15.9766C837.098 15.6406 837.582 15.4727 838.223 15.4727C838.863 15.4727 839.348 15.6406 839.676 15.9766C840.004 16.3047 840.168 16.7773 840.168 17.3945C840.168 18.0039 839.996 18.4766 839.652 18.8125C839.316 19.1484 838.84 19.3164 838.223 19.3164C837.59 19.3164 837.109 19.1484 836.781 18.8125C836.453 18.4688 836.289 17.9961 836.289 17.3945ZM842.781 17.3945C842.781 16.7852 842.941 16.3125 843.262 15.9766C843.59 15.6406 844.074 15.4727 844.715 15.4727C845.355 15.4727 845.84 15.6406 846.168 15.9766C846.496 16.3047 846.66 16.7773 846.66 17.3945C846.66 18.0039 846.488 18.4766 846.145 18.8125C845.809 19.1484 845.332 19.3164 844.715 19.3164C844.082 19.3164 843.602 19.1484 843.273 18.8125C842.945 18.4688 842.781 17.9961 842.781 17.3945ZM849.273 17.3945C849.273 16.7852 849.434 16.3125 849.754 15.9766C850.082 15.6406 850.566 15.4727 851.207 15.4727C851.848 15.4727 852.332 15.6406 852.66 15.9766C852.988 16.3047 853.152 16.7773 853.152 17.3945C853.152 18.0039 852.98 18.4766 852.637 18.8125C852.301 19.1484 851.824 19.3164 851.207 19.3164C850.574 19.3164 850.094 19.1484 849.766 18.8125C849.438 18.4688 849.273 17.9961 849.273 17.3945ZM855.766 17.3945C855.766 16.7852 855.926 16.3125 856.246 15.9766C856.574 15.6406 857.059 15.4727 857.699 15.4727C858.34 15.4727 858.824 15.6406 859.152 15.9766C859.48 16.3047 859.645 16.7773 859.645 17.3945C859.645 18.0039 859.473 18.4766 859.129 18.8125C858.793 19.1484 858.316 19.3164 857.699 19.3164C857.066 19.3164 856.586 19.1484 856.258 18.8125C855.93 18.4688 855.766 17.9961 855.766 17.3945ZM862.258 17.3945C862.258 16.7852 862.418 16.3125 862.738 15.9766C863.066 15.6406 863.551 15.4727 864.191 15.4727C864.832 15.4727 865.316 15.6406 865.645 15.9766C865.973 16.3047 866.137 16.7773 866.137 17.3945C866.137 18.0039 865.965 18.4766 865.621 18.8125C865.285 19.1484 864.809 19.3164 864.191 19.3164C863.559 19.3164 863.078 19.1484 862.75 18.8125C862.422 18.4688 862.258 17.9961 862.258 17.3945ZM868.75 17.3945C868.75 16.7852 868.91 16.3125 869.23 15.9766C869.559 15.6406 870.043 15.4727 870.684 15.4727C871.324 15.4727 871.809 15.6406 872.137 15.9766C872.465 16.3047 872.629 16.7773 872.629 17.3945C872.629 18.0039 872.457 18.4766 872.113 18.8125C871.777 19.1484 871.301 19.3164 870.684 19.3164C870.051 19.3164 869.57 19.1484 869.242 18.8125C868.914 18.4688 868.75 17.9961 868.75 17.3945ZM875.242 17.3945C875.242 16.7852 875.402 16.3125 875.723 15.9766C876.051 15.6406 876.535 15.4727 877.176 15.4727C877.816 15.4727 878.301 15.6406 878.629 15.9766C878.957 16.3047 879.121 16.7773 879.121 17.3945C879.121 18.0039 878.949 18.4766 878.605 18.8125C878.27 19.1484 877.793 19.3164 877.176 19.3164C876.543 19.3164 876.062 19.1484 875.734 18.8125C875.406 18.4688 875.242 17.9961 875.242 17.3945ZM890.676 13.6445C890.676 14.8867 890.324 15.8828 889.621 16.6328C888.926 17.375 887.934 17.8125 886.645 17.9453V20.3945H885.285V17.9922C883.801 17.9453 882.473 17.6172 881.301 17.0078V14.125C881.926 14.4922 882.586 14.793 883.281 15.0273C883.977 15.2617 884.645 15.3945 885.285 15.4258V11.4648L884.875 11.2773C883.547 10.6445 882.617 9.99219 882.086 9.32031C881.562 8.64062 881.301 7.78906 881.301 6.76562C881.301 5.59375 881.648 4.65234 882.344 3.94141C883.039 3.22266 884.02 2.79297 885.285 2.65234V0.765625H886.645V2.62891C887.855 2.70703 889.059 3.04297 890.254 3.63672L889.316 6.13281C888.316 5.64844 887.426 5.37109 886.645 5.30078V9.01562C886.887 9.10938 887.008 9.16406 887.008 9.17969C888 9.60938 888.742 10.0273 889.234 10.4336C889.727 10.832 890.09 11.293 890.324 11.8164C890.559 12.332 890.676 12.9414 890.676 13.6445ZM887.922 13.7148C887.922 13.3633 887.844 13.0742 887.688 12.8477C887.539 12.6133 887.191 12.3594 886.645 12.0859V15.3555C887.496 15.207 887.922 14.6602 887.922 13.7148ZM884.055 6.76562C884.055 7.16406 884.148 7.48828 884.336 7.73828C884.523 7.98047 884.84 8.19141 885.285 8.37109V5.30078C884.465 5.42578 884.055 5.91406 884.055 6.76562ZM900.086 19H896.945V8.94531C896.945 7.85156 897 6.59375 897.109 5.17188C897.055 5.25 896.852 5.48828 896.5 5.88672C896.156 6.28516 895.48 7 894.473 8.03125L892.691 6.08594L897.25 1.86719H900.086V19ZM912.824 9.33203C912.824 15.9336 910.617 19.2344 906.203 19.2344C905.469 19.2344 904.859 19.1719 904.375 19.0469V16.3633C904.906 16.5352 905.402 16.6211 905.863 16.6211C907.168 16.6211 908.156 16.168 908.828 15.2617C909.508 14.3555 909.883 12.9297 909.953 10.9844H909.848C909.598 11.6016 909.238 12.0859 908.77 12.4375C908.309 12.7812 907.758 12.9531 907.117 12.9531C905.953 12.9531 905.051 12.4766 904.41 11.5234C903.77 10.5703 903.449 9.26172 903.449 7.59766C903.449 5.76953 903.867 4.32031 904.703 3.25C905.547 2.17969 906.672 1.64453 908.078 1.64453C909.609 1.64453 910.781 2.30469 911.594 3.625C912.414 4.94531 912.824 6.84766 912.824 9.33203ZM908.102 4.36328C907.633 4.36328 907.258 4.61719 906.977 5.125C906.703 5.63281 906.566 6.43359 906.566 7.52734C906.566 8.42578 906.688 9.12891 906.93 9.63672C907.172 10.1367 907.539 10.3867 908.031 10.3867C908.477 10.3867 908.863 10.1328 909.191 9.625C909.52 9.10938 909.684 8.52344 909.684 7.86719C909.684 6.85156 909.539 6.01562 909.25 5.35938C908.961 4.69531 908.578 4.36328 908.102 4.36328ZM915.062 17.3945C915.062 16.7852 915.223 16.3125 915.543 15.9766C915.871 15.6406 916.355 15.4727 916.996 15.4727C917.637 15.4727 918.121 15.6406 918.449 15.9766C918.777 16.3047 918.941 16.7773 918.941 17.3945C918.941 18.0039 918.77 18.4766 918.426 18.8125C918.09 19.1484 917.613 19.3164 916.996 19.3164C916.363 19.3164 915.883 19.1484 915.555 18.8125C915.227 18.4688 915.062 17.9961 915.062 17.3945ZM922.363 19L927.168 4.71484H921.191V1.89062H930.379V4.04688L925.656 19H922.363ZM937.223 8.27734C938.512 8.27734 939.535 8.72656 940.293 9.625C941.059 10.5234 941.441 11.7539 941.441 13.3164C941.441 15.1836 940.965 16.6367 940.012 17.6758C939.066 18.7148 937.75 19.2344 936.062 19.2344C934.562 19.2344 933.348 18.9492 932.418 18.3789V15.4023C932.816 15.6914 933.328 15.9492 933.953 16.1758C934.586 16.3945 935.172 16.5039 935.711 16.5039C937.391 16.5039 938.23 15.5273 938.23 13.5742C938.23 11.7539 937.414 10.8438 935.781 10.8438C935.133 10.8438 934.445 10.9688 933.719 11.2188L932.688 10.457L933.215 1.86719H940.527V4.71484H935.945L935.711 8.41797C936.148 8.32422 936.652 8.27734 937.223 8.27734ZM1006.08 13.6445C1006.08 14.8867 1005.73 15.8828 1005.03 16.6328C1004.33 17.375 1003.34 17.8125 1002.05 17.9453V20.3945H1000.69V17.9922C999.207 17.9453 997.879 17.6172 996.707 17.0078V14.125C997.332 14.4922 997.992 14.793 998.688 15.0273C999.383 15.2617 1000.05 15.3945 1000.69 15.4258V11.4648L1000.28 11.2773C998.953 10.6445 998.023 9.99219 997.492 9.32031C996.969 8.64062 996.707 7.78906 996.707 6.76562C996.707 5.59375 997.055 4.65234 997.75 3.94141C998.445 3.22266 999.426 2.79297 1000.69 2.65234V0.765625H1002.05V2.62891C1003.26 2.70703 1004.46 3.04297 1005.66 3.63672L1004.72 6.13281C1003.72 5.64844 1002.83 5.37109 1002.05 5.30078V9.01562C1002.29 9.10938 1002.41 9.16406 1002.41 9.17969C1003.41 9.60938 1004.15 10.0273 1004.64 10.4336C1005.13 10.832 1005.5 11.293 1005.73 11.8164C1005.96 12.332 1006.08 12.9414 1006.08 13.6445ZM1003.33 13.7148C1003.33 13.3633 1003.25 13.0742 1003.09 12.8477C1002.95 12.6133 1002.6 12.3594 1002.05 12.0859V15.3555C1002.9 15.207 1003.33 14.6602 1003.33 13.7148ZM999.461 6.76562C999.461 7.16406 999.555 7.48828 999.742 7.73828C999.93 7.98047 1000.25 8.19141 1000.69 8.37109V5.30078C999.871 5.42578 999.461 5.91406 999.461 6.76562ZM1015.49 19H1012.35V8.94531C1012.35 7.85156 1012.41 6.59375 1012.52 5.17188C1012.46 5.25 1012.26 5.48828 1011.91 5.88672C1011.56 6.28516 1010.89 7 1009.88 8.03125L1008.1 6.08594L1012.66 1.86719H1015.49V19ZM1020.17 19L1024.97 4.71484H1019V1.89062H1028.18V4.04688L1023.46 19H1020.17ZM1030.47 17.3945C1030.47 16.7852 1030.63 16.3125 1030.95 15.9766C1031.28 15.6406 1031.76 15.4727 1032.4 15.4727C1033.04 15.4727 1033.53 15.6406 1033.86 15.9766C1034.18 16.3047 1034.35 16.7773 1034.35 17.3945C1034.35 18.0039 1034.18 18.4766 1033.83 18.8125C1033.5 19.1484 1033.02 19.3164 1032.4 19.3164C1031.77 19.3164 1031.29 19.1484 1030.96 18.8125C1030.63 18.4688 1030.47 17.9961 1030.47 17.3945ZM1037.77 19L1042.57 4.71484H1036.6V1.89062H1045.79V4.04688L1041.06 19H1037.77ZM1052.63 8.27734C1053.92 8.27734 1054.94 8.72656 1055.7 9.625C1056.46 10.5234 1056.85 11.7539 1056.85 13.3164C1056.85 15.1836 1056.37 16.6367 1055.42 17.6758C1054.47 18.7148 1053.16 19.2344 1051.47 19.2344C1049.97 19.2344 1048.75 18.9492 1047.82 18.3789V15.4023C1048.22 15.6914 1048.73 15.9492 1049.36 16.1758C1049.99 16.3945 1050.58 16.5039 1051.12 16.5039C1052.8 16.5039 1053.64 15.5273 1053.64 13.5742C1053.64 11.7539 1052.82 10.8438 1051.19 10.8438C1050.54 10.8438 1049.85 10.9688 1049.12 11.2188L1048.09 10.457L1048.62 1.86719H1055.93V4.71484H1051.35L1051.12 8.41797C1051.55 8.32422 1052.06 8.27734 1052.63 8.27734Z" fill="white"/>
</svg>
